<svg width="50" height="50" viewBox="0 0 50 50" fill="none" xmlns="http://www.w3.org/2000/svg">
<path d="M40.2344 2.34375H9.76562C5.23516 2.34375 1.5625 6.01641 1.5625 10.5469V39.4531C1.5625 43.9836 5.23516 47.6562 9.76562 47.6562H40.2344C44.7648 47.6562 48.4375 43.9836 48.4375 39.4531V10.5469C48.4375 6.01641 44.7648 2.34375 40.2344 2.34375Z" fill="white"/>
<path d="M25.1541 30.4688H18.1638L16.3591 35.6797C16.3383 35.8516 16.2296 35.9375 16.033 35.9375H12.7517C12.533 35.9375 12.4568 35.8301 12.5232 35.6152L18.8552 16.8086C19.0341 16.236 19.1224 15.6389 19.1169 15.0391C19.1134 15.0126 19.116 14.9856 19.1246 14.9603C19.1332 14.935 19.1474 14.912 19.1663 14.8931C19.1852 14.8742 19.2082 14.86 19.2335 14.8514C19.2588 14.8428 19.2858 14.8402 19.3123 14.8438H23.906C24.0388 14.8438 24.115 14.8984 24.1365 15.0039L31.2224 35.6484C31.2888 35.8438 31.2341 35.9375 31.0584 35.9375H27.3845C27.3166 35.9416 27.2489 35.9251 27.1904 35.8903C27.1319 35.8555 27.0852 35.8039 27.0564 35.7422L25.1541 30.4688ZM18.9451 26.9531H24.3904C24.2595 26.666 21.8103 18.7637 21.6345 18.0977H21.6033L18.9451 26.9531ZM35.1384 18.75C34.8305 18.7632 34.523 18.7145 34.2341 18.6068C33.9453 18.4991 33.681 18.3346 33.4568 18.123C33.2374 17.9 33.0668 17.6337 32.9558 17.3412C32.8449 17.0487 32.796 16.7363 32.8123 16.4238C32.7977 16.1074 32.8491 15.7914 32.963 15.4959C33.077 15.2004 33.2511 14.9317 33.4744 14.707C33.7004 14.4919 33.9672 14.324 34.259 14.2134C34.5508 14.1027 34.8617 14.0514 35.1736 14.0625C35.486 14.0462 35.7984 14.0951 36.091 14.2061C36.3835 14.317 36.6497 14.4876 36.8728 14.707C37.0863 14.9371 37.2518 15.2074 37.3594 15.5022C37.4671 15.797 37.5148 16.1103 37.4998 16.4238C37.516 16.7363 37.4671 17.0487 37.3562 17.3412C37.2452 17.6337 37.0746 17.9 36.8552 18.123C36.6252 18.3366 36.3549 18.502 36.0601 18.6097C35.7653 18.7173 35.4519 18.765 35.1384 18.75ZM33.2029 35.6445V20.5742C33.1976 20.5386 33.2008 20.5023 33.212 20.4682C33.2233 20.434 33.2425 20.403 33.2679 20.3775C33.2933 20.3521 33.3244 20.333 33.3585 20.3217C33.3927 20.3104 33.429 20.3072 33.4646 20.3125H36.8474C36.8829 20.3077 36.9191 20.3111 36.953 20.3225C36.987 20.334 37.0179 20.3531 37.0432 20.3784C37.0685 20.4038 37.0877 20.4346 37.0991 20.4686C37.1105 20.5026 37.114 20.5387 37.1091 20.5742V35.6758C37.1144 35.7114 37.1113 35.7477 37.1 35.7819C37.0887 35.816 37.0695 35.847 37.0441 35.8725C37.0187 35.8979 36.9876 35.917 36.9535 35.9283C36.9193 35.9396 36.883 35.9428 36.8474 35.9375H33.4959C33.4561 35.943 33.4156 35.9392 33.3775 35.9265C33.3395 35.9137 33.3049 35.8923 33.2765 35.8639C33.2481 35.8355 33.2267 35.8009 33.2139 35.7629C33.2011 35.7248 33.1974 35.6843 33.2029 35.6445Z" fill="black"/>
</svg>
