<svg width="50" height="50" viewBox="0 0 50 50" fill="none" xmlns="http://www.w3.org/2000/svg">
<path d="M40.2344 2.34375H9.76562C5.23516 2.34375 1.5625 6.01641 1.5625 10.5469V39.4531C1.5625 43.9836 5.23516 47.6562 9.76562 47.6562H40.2344C44.7648 47.6562 48.4375 43.9836 48.4375 39.4531V10.5469C48.4375 6.01641 44.7648 2.34375 40.2344 2.34375Z" fill="white"/>
<path d="M21.2478 30.4687H14.2576L12.4529 35.6796C12.4321 35.8515 12.3233 35.9374 12.1267 35.9374H8.84546C8.62671 35.9374 8.55054 35.83 8.61695 35.6152L14.949 16.8085C15.1278 16.2359 15.2161 15.6389 15.2107 15.039C15.2072 15.0125 15.2098 14.9856 15.2183 14.9603C15.2269 14.935 15.2412 14.912 15.2601 14.8931C15.279 14.8742 15.302 14.8599 15.3273 14.8513C15.3526 14.8428 15.3795 14.8402 15.406 14.8437H19.9998C20.1326 14.8437 20.2087 14.8984 20.2302 15.0038L27.3162 35.6484C27.3826 35.8437 27.3279 35.9374 27.1521 35.9374H23.4783C23.4103 35.9415 23.3427 35.9251 23.2842 35.8902C23.2257 35.8554 23.179 35.8038 23.1502 35.7421L21.2478 30.4687ZM15.0388 26.9531H20.4841C20.3533 26.666 17.9041 18.7636 17.7283 18.0976H17.697L15.0388 26.9531ZM37.8005 29.0019H32.0134C32.0356 30.3548 32.4151 31.4225 33.1521 32.205C33.8891 32.9876 34.9959 33.3782 36.4724 33.3769C37.7098 33.399 38.938 33.1614 40.0779 32.6796C40.2048 32.5956 40.2732 32.6367 40.2732 32.8066V35.121C40.2724 35.1953 40.2544 35.2684 40.2205 35.3345C40.1866 35.4006 40.1378 35.4579 40.0779 35.5019C38.88 36.0527 37.4041 36.3281 35.6502 36.3281C33.059 36.3281 31.1567 35.5826 29.9431 34.0917C28.7296 32.6009 28.1235 30.735 28.1248 28.4941C28.1248 26.1647 28.7569 24.2187 30.0212 22.6562C31.2856 21.0937 33.0147 20.3124 35.2087 20.3124C37.2921 20.3124 38.8468 20.957 39.8728 22.246C40.8938 23.5345 41.4357 25.1375 41.406 26.7812C41.4256 27.3972 41.383 28.0136 41.2791 28.621C41.2746 28.6866 41.2466 28.7483 41.2004 28.7949C41.1541 28.8415 41.0926 28.8699 41.0271 28.8749C40.4789 28.9596 39.4034 29.0019 37.8005 29.0019ZM32.0134 26.5624H36.1892C37.1007 26.5624 37.6169 26.541 37.738 26.498C37.7643 26.3517 37.7748 26.2031 37.7693 26.0546C37.7786 25.2912 37.5581 24.5427 37.1365 23.9062C36.7146 23.2721 36.0297 22.955 35.0818 22.955C34.1547 22.955 33.4386 23.2929 32.9334 23.9687C32.3954 24.733 32.0773 25.63 32.0134 26.5624Z" fill="black"/>
</svg>
