<svg width="50" height="50" viewBox="0 0 50 50" fill="none" xmlns="http://www.w3.org/2000/svg">
<path d="M40.6719 2H10.2031C5.67266 2 2 5.67266 2 10.2031V39.1094C2 43.6398 5.67266 47.3125 10.2031 47.3125H40.6719C45.2023 47.3125 48.875 43.6398 48.875 39.1094V10.2031C48.875 5.67266 45.2023 2 40.6719 2Z" fill="white"/>
<g clip-path="url(#clip0_422_531)">
<path d="M28.9844 28.9844C31.1849 28.9844 32.9688 27.2005 32.9688 25C32.9688 22.7995 31.1849 21.0156 28.9844 21.0156C26.7839 21.0156 25 22.7995 25 25C25 27.2005 26.7839 28.9844 28.9844 28.9844Z" stroke="black" stroke-width="2.5" stroke-linecap="round" stroke-linejoin="round"/>
<path d="M25 21.0156V13.047H21.0156C19.9589 13.047 18.9455 13.4668 18.1982 14.214C17.451 14.9612 17.0312 15.9747 17.0312 17.0314C17.0312 18.0881 17.451 19.1015 18.1982 19.8488C18.9455 20.596 19.9589 21.0157 21.0156 21.0157L25 21.0156Z" stroke="black" stroke-width="2.5" stroke-linecap="round" stroke-linejoin="round"/>
<path d="M25 28.9843V21.0156H21.0156C19.9589 21.0156 18.9455 21.4354 18.1982 22.1826C17.451 22.9299 17.0312 23.9433 17.0312 25C17.0312 26.0567 17.451 27.0702 18.1982 27.8174C18.9455 28.5646 19.9589 28.9844 21.0156 28.9844L25 28.9843ZM25 21.0156V13.047H28.9844C30.0411 13.047 31.0545 13.4668 31.8018 14.214C32.549 14.9612 32.9688 15.9746 32.9688 17.0314C32.9688 18.0881 32.549 19.1015 31.8018 19.8487C31.0545 20.596 30.0411 21.0157 28.9844 21.0157L25 21.0156Z" stroke="black" stroke-width="2.5" stroke-linecap="round" stroke-linejoin="round"/>
<path d="M25 28.9843V32.9687C25 33.7567 24.7663 34.5271 24.3285 35.1823C23.8907 35.8375 23.2685 36.3482 22.5404 36.6498C21.8124 36.9514 21.0112 37.0303 20.2383 36.8766C19.4654 36.7228 18.7555 36.3434 18.1983 35.7861C17.641 35.2289 17.2616 34.519 17.1078 33.7461C16.9541 32.9732 17.033 32.172 17.3345 31.444C17.6361 30.7159 18.1468 30.0937 18.802 29.6558C19.4572 29.218 20.2276 28.9844 21.0156 28.9844L25 28.9843Z" stroke="black" stroke-width="2.5" stroke-linecap="round" stroke-linejoin="round"/>
</g>
<defs>
<clipPath id="clip0_422_531">
<rect width="30" height="30" fill="white" transform="translate(10 10)"/>
</clipPath>
</defs>
</svg>
