<svg width="25" height="25" viewBox="0 0 25 25" fill="none" xmlns="http://www.w3.org/2000/svg">
<path d="M15.8203 15.8203C17.6541 15.8203 19.1406 14.3338 19.1406 12.5C19.1406 10.6662 17.6541 9.17969 15.8203 9.17969C13.9866 9.17969 12.5 10.6662 12.5 12.5C12.5 14.3338 13.9866 15.8203 15.8203 15.8203Z" stroke="white" stroke-width="1.5" stroke-linecap="round" stroke-linejoin="round"/>
<path d="M12.5 9.1796V2.53906H9.17969C8.29909 2.53906 7.45455 2.88888 6.83187 3.51156C6.20919 4.13424 5.85937 4.97877 5.85938 5.85938C5.85938 6.73998 6.20919 7.58451 6.83187 8.20719C7.45455 8.82987 8.29909 9.17969 9.17969 9.17969L12.5 9.1796Z" stroke="white" stroke-width="1.5" stroke-linecap="round" stroke-linejoin="round"/>
<path d="M12.5 15.8201V9.1796H9.17969C8.29909 9.1796 7.45455 9.52942 6.83187 10.1521C6.20919 10.7748 5.85938 11.6193 5.85938 12.4999C5.85938 13.3805 6.20919 14.225 6.83187 14.8477C7.45455 15.4704 8.29909 15.8202 9.17969 15.8202L12.5 15.8201ZM12.5 9.1796V2.53906H15.8203C16.7009 2.53906 17.5454 2.88888 18.1681 3.51156C18.7908 4.13424 19.1406 4.97877 19.1406 5.85937C19.1406 6.73998 18.7908 7.58451 18.1681 8.20719C17.5454 8.82987 16.7009 9.17969 15.8203 9.17969L12.5 9.1796Z" stroke="white" stroke-width="1.5" stroke-linecap="round" stroke-linejoin="round"/>
<path d="M12.5 15.8203V19.1407C12.5 19.7974 12.3053 20.4393 11.9404 20.9853C11.5756 21.5314 11.0571 21.957 10.4503 22.2083C9.84364 22.4596 9.17604 22.5253 8.53195 22.3972C7.88787 22.2691 7.29625 21.9529 6.83189 21.4885C6.36753 21.0242 6.0513 20.4326 5.92318 19.7885C5.79506 19.1444 5.86081 18.4768 6.11212 17.8701C6.36342 17.2634 6.78899 16.7448 7.33502 16.38C7.88104 16.0151 8.52299 15.8204 9.17969 15.8204L12.5 15.8203Z" stroke="white" stroke-width="1.5" stroke-linecap="round" stroke-linejoin="round"/>
</svg>
