<svg width="26" height="15" viewBox="0 0 26 15" fill="none" xmlns="http://www.w3.org/2000/svg">
<path d="M2.84 14L4.26 10.54H10.32L11.74 14H14.22L8.48 -9.53674e-07H6.08L0.36 14H2.84ZM7.3 3.1L9.46 8.42H5.12L7.3 3.1ZM20.2016 14.3C22.7016 14.3 24.4816 12.92 25.0216 10.64H22.7216C22.3616 11.7 21.4416 12.3 20.2216 12.3C18.4216 12.3 17.2616 11.04 17.1016 9.18H25.0616V8.62C25.0016 5.18 23.0016 3.08 20.0016 3.08C17.0416 3.08 14.7416 5.24 14.7416 8.74C14.7416 11.98 16.9616 14.3 20.2016 14.3ZM17.2016 7.52C17.5616 6 18.6016 5.08 20.0016 5.08C21.3816 5.08 22.3216 6 22.6216 7.52H17.2016Z" fill="white"/>
</svg>
