<svg width="339" height="117" viewBox="0 0 339 117" fill="none" xmlns="http://www.w3.org/2000/svg">
<path d="M113.633 8.6378V6.83731H115.031C115.249 6.83731 115.406 6.93961 115.474 7.13057L116.027 8.6378H116.9L116.286 6.99417C116.17 6.70091 115.945 6.50995 115.631 6.44857C116.265 6.28489 116.681 5.80066 116.681 5.21414C116.681 4.41619 116.054 3.86377 115.147 3.86377H112.814V8.6378H113.633ZM113.633 4.60033H115.106C115.57 4.60033 115.87 4.90042 115.87 5.3369C115.87 5.75292 115.611 6.11439 115.106 6.11439H113.633V4.60033Z" fill="white"/>
<path fill-rule="evenodd" clip-rule="evenodd" d="M114.662 11.1954C117.252 11.1954 119.351 9.09616 119.351 6.50662C119.351 3.91708 117.252 1.81784 114.662 1.81784C112.073 1.81784 109.974 3.91708 109.974 6.50662C109.974 9.09616 112.073 11.1954 114.662 11.1954ZM114.662 12.0479C117.723 12.0479 120.204 9.56699 120.204 6.50662C120.204 3.44625 117.723 0.965332 114.662 0.965332C111.602 0.965332 109.121 3.44625 109.121 6.50662C109.121 9.56699 111.602 12.0479 114.662 12.0479Z" fill="white"/>
<path fill-rule="evenodd" clip-rule="evenodd" d="M83.4416 0.965332C95.7828 0.965332 105.787 10.918 105.787 23.1951V31.3555H91.6444V23.1951C91.6444 18.6883 87.9719 15.0348 83.4416 15.0348C78.9113 15.0348 75.2387 18.6883 75.2387 23.1951V31.3555H75.2394V45.425H105.787V116.054H91.6444V59.4946H75.2394V93.8241C75.2394 106.101 65.2349 116.054 52.8937 116.054C40.5525 116.054 30.548 106.101 30.548 93.8241V53.7742C30.4981 49.31 26.8449 45.7064 22.3457 45.7064C17.8154 45.7064 14.1428 49.3599 14.1428 53.8667V116.054H0V53.8667C0 41.5896 10.0045 31.6369 22.3457 31.6369C34.5925 31.6369 44.5382 41.4378 44.6896 53.5854H44.6909V53.7136C44.6912 53.7646 44.6914 53.8157 44.6914 53.8667V90.1661H44.6909V93.8241C44.6909 98.331 48.3634 101.984 52.8937 101.984C57.424 101.984 61.0966 98.331 61.0966 93.8241V90.7289H61.0959V85.3823V45.425V23.1951C61.0959 10.918 71.1004 0.965332 83.4416 0.965332Z" fill="white"/>
<path d="M131.618 86.3226H129.367V68.4199H133.868L140.365 86.3226L146.451 68.4199H150.902V86.3226H148.651V68.5734H148.625L142.641 86.3226H138.088L131.643 68.4711H131.618V86.3226Z" fill="white"/>
<path d="M165.802 68.4199L172.937 86.3226H170.431L168.692 81.9236H157.72L155.853 86.3226H153.347L160.968 68.4199H163.398L158.487 79.8776H167.95L163.398 68.4199H165.802Z" fill="white"/>
<path d="M178.255 86.3226L170.787 68.4199H173.191L180.71 86.2459H180.761L188.076 68.4199H190.557L183.14 86.3226H178.255Z" fill="white"/>
<path d="M210.128 68.4199L201.867 76.3482L210.179 86.3226H207.315L200.512 78.2152H197.033V86.3226H194.732V68.4199H197.033V77.9595L206.931 68.4199H210.128Z" fill="white"/>
<path d="M225.084 68.4199L232.22 86.3226H229.713L227.974 81.9236H217.003L215.136 86.3226H212.629L220.251 68.4199H222.68L217.77 79.8776H227.233L222.68 68.4199H225.084Z" fill="white"/>
<path d="M137.27 116.16H129.367V98.2577H137.04C138.404 98.2577 139.631 98.4879 140.723 98.9482C141.814 99.3915 142.743 100.014 143.51 100.815C144.295 101.6 144.891 102.546 145.301 103.654C145.727 104.745 145.94 105.947 145.94 107.26C145.94 108.573 145.727 109.775 145.301 110.866C144.891 111.958 144.303 112.895 143.536 113.68C142.786 114.464 141.873 115.078 140.799 115.521C139.742 115.947 138.566 116.16 137.27 116.16ZM131.669 100.457V113.961H136.886C137.943 113.961 138.881 113.807 139.7 113.501C140.518 113.177 141.209 112.725 141.771 112.145C142.351 111.565 142.786 110.866 143.076 110.048C143.382 109.212 143.536 108.283 143.536 107.26C143.536 106.22 143.382 105.282 143.076 104.447C142.769 103.594 142.325 102.878 141.746 102.299C141.166 101.702 140.45 101.25 139.597 100.943C138.745 100.619 137.764 100.457 136.656 100.457H131.669Z" fill="white"/>
<path d="M163.235 98.2577V100.432H150.805V106.058H163.235V108.155H150.805V113.961H163.235V116.16H148.504V98.2577H163.235Z" fill="white"/>
<path d="M166.048 103.501C166.048 102.392 166.286 101.497 166.764 100.815C167.241 100.133 167.855 99.6047 168.605 99.2296C169.372 98.8374 170.225 98.5817 171.163 98.4623C172.1 98.3259 173.03 98.2577 173.95 98.2577C174.922 98.2577 175.877 98.3174 176.815 98.4367C177.77 98.539 178.622 98.7777 179.372 99.1528C180.123 99.5279 180.728 100.065 181.188 100.764C181.649 101.463 181.879 102.401 181.879 103.577H179.628C179.628 102.827 179.466 102.239 179.142 101.813C178.818 101.369 178.392 101.045 177.863 100.841C177.335 100.619 176.73 100.483 176.048 100.432C175.366 100.363 174.667 100.329 173.95 100.329C173.285 100.329 172.612 100.355 171.93 100.406C171.265 100.457 170.66 100.594 170.114 100.815C169.586 101.02 169.151 101.335 168.81 101.762C168.469 102.171 168.298 102.733 168.298 103.449C168.298 104.183 168.546 104.771 169.04 105.214C169.551 105.657 170.336 105.93 171.393 106.033L177.429 106.57C178.946 106.706 180.114 107.115 180.932 107.797C181.751 108.462 182.16 109.485 182.16 110.866C182.16 112.077 181.904 113.032 181.393 113.731C180.881 114.43 180.216 114.958 179.398 115.316C178.58 115.674 177.667 115.905 176.661 116.007C175.655 116.109 174.667 116.16 173.695 116.16C172.757 116.16 171.819 116.101 170.881 115.981C169.944 115.845 169.091 115.589 168.324 115.214C167.574 114.822 166.96 114.285 166.482 113.603C166.022 112.904 165.792 111.983 165.792 110.841H168.043C168.043 111.54 168.205 112.102 168.528 112.529C168.852 112.955 169.279 113.287 169.807 113.526C170.353 113.748 170.967 113.901 171.649 113.986C172.331 114.055 173.021 114.089 173.72 114.089C174.488 114.089 175.238 114.063 175.971 114.012C176.721 113.961 177.395 113.833 177.991 113.628C178.588 113.424 179.065 113.117 179.424 112.708C179.799 112.299 179.986 111.736 179.986 111.02C179.986 110.593 179.909 110.244 179.756 109.971C179.62 109.681 179.415 109.451 179.142 109.281C178.886 109.11 178.562 108.982 178.17 108.897C177.795 108.812 177.378 108.744 176.917 108.692L170.856 108.13C169.304 107.993 168.111 107.542 167.275 106.774C166.457 106.007 166.048 104.916 166.048 103.501Z" fill="white"/>
<path d="M184.856 98.2577H187.158V116.16H184.856V98.2577Z" fill="white"/>
<path d="M199.7 100.406C197.296 100.406 195.446 100.986 194.15 102.145C192.854 103.305 192.207 105.052 192.207 107.388C192.207 109.622 192.829 111.284 194.074 112.375C195.335 113.466 197.091 114.012 199.342 114.012C200.041 114.012 200.774 113.876 201.542 113.603C202.326 113.33 203.042 112.955 203.69 112.478C204.338 112 204.875 111.429 205.301 110.764C205.744 110.099 205.966 109.383 205.966 108.616H199.316V106.57H208.14V115.905H205.966V108.616C205.966 109.417 205.821 110.261 205.531 111.148C205.258 112.034 204.841 112.853 204.278 113.603C203.715 114.336 203.008 114.95 202.155 115.444C201.303 115.922 200.297 116.16 199.137 116.16C197.688 116.16 196.384 115.964 195.224 115.572C194.082 115.18 193.11 114.609 192.309 113.859C191.507 113.108 190.894 112.179 190.467 111.071C190.058 109.963 189.854 108.692 189.854 107.26C189.854 105.692 190.101 104.345 190.595 103.219C191.09 102.077 191.78 101.139 192.667 100.406C193.554 99.6729 194.594 99.1358 195.787 98.7948C196.998 98.4367 198.319 98.2577 199.751 98.2577C200.774 98.2577 201.763 98.3771 202.718 98.6158C203.673 98.8374 204.534 99.1955 205.301 99.6899C206.068 100.184 206.699 100.824 207.194 101.608C207.705 102.392 208.021 103.339 208.14 104.447H205.813C205.437 102.929 204.721 101.881 203.664 101.301C202.624 100.704 201.303 100.406 199.7 100.406Z" fill="white"/>
<path d="M227.926 98.2577V116.16H223.169L212.965 98.2577H215.369L225.65 116.16V98.2577H227.926ZM210.688 116.16V98.2577H212.965V116.16H210.688Z" fill="white"/>
<path d="M237.129 103.501C237.129 102.392 237.368 101.497 237.845 100.815C238.322 100.133 238.936 99.6047 239.686 99.2296C240.454 98.8374 241.306 98.5817 242.244 98.4623C243.182 98.3259 244.111 98.2577 245.032 98.2577C246.003 98.2577 246.958 98.3174 247.896 98.4367C248.851 98.539 249.703 98.7777 250.454 99.1528C251.204 99.5279 251.809 100.065 252.269 100.764C252.73 101.463 252.96 102.401 252.96 103.577H250.709C250.709 102.827 250.547 102.239 250.223 101.813C249.899 101.369 249.473 101.045 248.945 100.841C248.416 100.619 247.811 100.483 247.129 100.432C246.447 100.363 245.748 100.329 245.032 100.329C244.367 100.329 243.693 100.355 243.011 100.406C242.346 100.457 241.741 100.594 241.195 100.815C240.667 101.02 240.232 101.335 239.891 101.762C239.55 102.171 239.379 102.733 239.379 103.449C239.379 104.183 239.627 104.771 240.121 105.214C240.633 105.657 241.417 105.93 242.474 106.033L248.51 106.57C250.027 106.706 251.195 107.115 252.014 107.797C252.832 108.462 253.241 109.485 253.241 110.866C253.241 112.077 252.986 113.032 252.474 113.731C251.962 114.43 251.298 114.958 250.479 115.316C249.661 115.674 248.749 115.905 247.743 116.007C246.737 116.109 245.748 116.16 244.776 116.16C243.838 116.16 242.9 116.101 241.963 115.981C241.025 115.845 240.172 115.589 239.405 115.214C238.655 114.822 238.041 114.285 237.564 113.603C237.103 112.904 236.873 111.983 236.873 110.841H239.124C239.124 111.54 239.286 112.102 239.61 112.529C239.934 112.955 240.36 113.287 240.888 113.526C241.434 113.748 242.048 113.901 242.73 113.986C243.412 114.055 244.102 114.089 244.801 114.089C245.569 114.089 246.319 114.063 247.052 114.012C247.802 113.961 248.476 113.833 249.072 113.628C249.669 113.424 250.147 113.117 250.505 112.708C250.88 112.299 251.067 111.736 251.067 111.02C251.067 110.593 250.991 110.244 250.837 109.971C250.701 109.681 250.496 109.451 250.223 109.281C249.968 109.11 249.644 108.982 249.252 108.897C248.876 108.812 248.459 108.744 247.998 108.692L241.937 108.13C240.385 107.993 239.192 107.542 238.356 106.774C237.538 106.007 237.129 104.916 237.129 103.501Z" fill="white"/>
<path d="M272.562 98.2577V100.457H265.324V116.16H263.022V100.457H255.81V98.2577H272.562Z" fill="white"/>
<path d="M275.121 109.255V98.2577H277.423V109.255C277.423 110.261 277.602 111.071 277.96 111.685C278.318 112.299 278.795 112.776 279.392 113.117C280.006 113.441 280.714 113.663 281.515 113.782C282.316 113.884 283.152 113.935 284.021 113.935C284.857 113.935 285.667 113.884 286.451 113.782C287.252 113.663 287.96 113.432 288.574 113.091C289.204 112.75 289.707 112.273 290.083 111.659C290.475 111.045 290.671 110.244 290.671 109.255V98.2577H292.973V109.255C292.973 110.687 292.725 111.855 292.231 112.759C291.754 113.645 291.097 114.345 290.262 114.856C289.443 115.35 288.488 115.691 287.397 115.879C286.323 116.067 285.198 116.16 284.021 116.16C282.845 116.16 281.719 116.067 280.645 115.879C279.571 115.691 278.625 115.342 277.806 114.83C276.988 114.319 276.332 113.62 275.837 112.733C275.36 111.83 275.121 110.67 275.121 109.255Z" fill="white"/>
<path d="M303.434 116.16H295.531V98.2577H303.204C304.568 98.2577 305.796 98.4879 306.887 98.9482C307.978 99.3915 308.907 100.014 309.674 100.815C310.459 101.6 311.055 102.546 311.465 103.654C311.891 104.745 312.104 105.947 312.104 107.26C312.104 108.573 311.891 109.775 311.465 110.866C311.055 111.958 310.467 112.895 309.7 113.68C308.95 114.464 308.038 115.078 306.963 115.521C305.906 115.947 304.73 116.16 303.434 116.16ZM297.833 100.457V113.961H303.05C304.108 113.961 305.045 113.807 305.864 113.501C306.682 113.177 307.373 112.725 307.935 112.145C308.515 111.565 308.95 110.866 309.24 110.048C309.547 109.212 309.7 108.283 309.7 107.26C309.7 106.22 309.547 105.282 309.24 104.447C308.933 103.594 308.489 102.878 307.91 102.299C307.33 101.702 306.614 101.25 305.761 100.943C304.909 100.619 303.929 100.457 302.82 100.457H297.833Z" fill="white"/>
<path d="M314.796 98.2577H317.097V116.16H314.796V98.2577Z" fill="white"/>
<path d="M339 107.209C339 110.125 338.173 112.35 336.519 113.884C334.865 115.402 332.487 116.16 329.384 116.16C326.246 116.16 323.859 115.402 322.222 113.884C320.603 112.35 319.793 110.125 319.793 107.209C319.793 104.259 320.628 102.034 322.299 100.534C323.97 99.0164 326.34 98.2577 329.409 98.2577C332.478 98.2577 334.84 98.9994 336.493 100.483C338.164 101.949 339 104.191 339 107.209ZM336.672 107.132C336.672 104.95 336.067 103.296 334.857 102.171C333.646 101.028 331.847 100.457 329.46 100.457C327.022 100.457 325.189 101.037 323.962 102.196C322.734 103.356 322.12 105.027 322.12 107.209C322.12 109.443 322.734 111.131 323.962 112.273C325.206 113.398 327.039 113.961 329.46 113.961C331.898 113.961 333.706 113.356 334.882 112.145C336.076 110.934 336.672 109.264 336.672 107.132Z" fill="white"/>
</svg>
