<svg width="290" height="135" viewBox="0 0 290 135" fill="none" xmlns="http://www.w3.org/2000/svg">
<mask id="mask0_482_1262" style="mask-type:alpha" maskUnits="userSpaceOnUse" x="0" y="0" width="46" height="46">
<rect width="45.8574" height="45.8574" fill="black"/>
</mask>
<g mask="url(#mask0_482_1262)">
<rect width="39.8993" height="65.4951" transform="matrix(0.701545 -0.712625 0.701545 0.712625 -14.04 13.8086)" fill="white"/>
</g>
<mask id="mask1_482_1262" style="mask-type:alpha" maskUnits="userSpaceOnUse" x="51" y="0" width="47" height="46">
<rect x="51.2539" width="45.8574" height="45.8574" fill="black"/>
</mask>
<g mask="url(#mask1_482_1262)">
<rect width="39.8993" height="65.4951" transform="matrix(0.701545 -0.712625 0.701545 0.712625 37.2129 13.8088)" fill="white"/>
</g>
<mask id="mask2_482_1262" style="mask-type:alpha" maskUnits="userSpaceOnUse" x="102" y="0" width="47" height="46">
<rect x="102.505" y="0.000244141" width="45.8574" height="45.8574" fill="black"/>
</mask>
<g mask="url(#mask2_482_1262)">
<rect width="39.8993" height="65.4951" transform="matrix(0.701545 -0.712625 0.701545 0.712625 88.4639 13.8088)" fill="white"/>
</g>
<mask id="mask3_482_1262" style="mask-type:alpha" maskUnits="userSpaceOnUse" x="0" y="51" width="46" height="36">
<rect y="51.2524" width="45.8574" height="35.0674" fill="black"/>
</mask>
<g mask="url(#mask3_482_1262)">
<rect width="35.4438" height="58.1814" transform="matrix(0.789732 -0.613451 0.789732 0.613451 -14.04 61.8123)" fill="white"/>
</g>
<mask id="mask4_482_1262" style="mask-type:alpha" maskUnits="userSpaceOnUse" x="0" y="91" width="46" height="25">
<rect y="91.7148" width="45.8574" height="24.2774" fill="black"/>
</mask>
<g mask="url(#mask4_482_1262)">
<rect width="31.782" height="52.1704" transform="matrix(0.880724 -0.47363 0.880724 0.47363 -14.04 99.0254)" fill="white"/>
</g>
<mask id="mask5_482_1262" style="mask-type:alpha" maskUnits="userSpaceOnUse" x="0" y="121" width="46" height="14">
<rect y="121.387" width="45.8574" height="13.4875" fill="black"/>
</mask>
<g mask="url(#mask5_482_1262)">
<rect width="29.2137" height="47.9545" transform="matrix(0.958152 -0.28626 0.958152 0.28626 -14.04 125.449)" fill="white"/>
</g>
<mask id="mask6_482_1262" style="mask-type:alpha" maskUnits="userSpaceOnUse" x="51" y="91" width="47" height="25">
<rect x="51.2539" y="91.7148" width="45.8574" height="24.2774" fill="black"/>
</mask>
<g mask="url(#mask6_482_1262)">
<rect width="31.782" height="52.1704" transform="matrix(0.880724 -0.47363 0.880724 0.47363 37.2129 99.0251)" fill="white"/>
</g>
<mask id="mask7_482_1262" style="mask-type:alpha" maskUnits="userSpaceOnUse" x="51" y="51" width="47" height="36">
<rect x="51.2539" y="51.2524" width="45.8574" height="35.0674" fill="black"/>
</mask>
<g mask="url(#mask7_482_1262)">
<rect width="35.4438" height="58.1814" transform="matrix(0.789732 -0.613451 0.789732 0.613451 37.2129 61.812)" fill="white"/>
</g>
<mask id="mask8_482_1262" style="mask-type:alpha" maskUnits="userSpaceOnUse" x="102" y="91" width="47" height="25">
<rect x="102.505" y="91.7148" width="45.8574" height="24.2774" fill="black"/>
</mask>
<g mask="url(#mask8_482_1262)">
<rect width="31.782" height="52.1704" transform="matrix(0.880724 -0.47363 0.880724 0.47363 88.4639 99.0251)" fill="white"/>
</g>
<mask id="mask9_482_1262" style="mask-type:alpha" maskUnits="userSpaceOnUse" x="51" y="121" width="47" height="14">
<rect x="51.2539" y="121.387" width="45.8574" height="13.4875" fill="black"/>
</mask>
<g mask="url(#mask9_482_1262)">
<rect width="29.2137" height="47.9545" transform="matrix(0.958152 -0.28626 0.958152 0.28626 37.2129 125.449)" fill="white"/>
</g>
<mask id="mask10_482_1262" style="mask-type:alpha" maskUnits="userSpaceOnUse" x="102" y="51" width="47" height="36">
<rect x="102.505" y="51.2524" width="45.8574" height="35.0674" fill="black"/>
</mask>
<g mask="url(#mask10_482_1262)">
<rect width="35.4438" height="58.1814" transform="matrix(0.789732 -0.613451 0.789732 0.613451 88.4639 61.812)" fill="white"/>
</g>
<mask id="mask11_482_1262" style="mask-type:alpha" maskUnits="userSpaceOnUse" x="102" y="121" width="47" height="14">
<rect x="102.505" y="121.387" width="45.8574" height="13.4875" fill="black"/>
</mask>
<g mask="url(#mask11_482_1262)">
<rect width="29.2137" height="47.9545" transform="matrix(0.958152 -0.28626 0.958152 0.28626 88.4639 125.449)" fill="white"/>
</g>
<path d="M187.582 89.875C183.408 89.875 180.101 88.7212 177.66 86.4135C175.22 84.0737 174 80.7404 174 76.4135V68.3365C174 64.0096 175.22 60.6923 177.66 58.3846C180.101 56.0449 183.408 54.875 187.582 54.875C191.724 54.875 194.919 56.0128 197.167 58.2885C199.447 60.5321 200.586 63.625 200.586 67.5673V67.8558H194.325V67.375C194.325 65.3878 193.763 63.7532 192.639 62.4712C191.548 61.1891 189.862 60.5481 187.582 60.5481C185.335 60.5481 183.569 61.2372 182.284 62.6154C181 63.9936 180.358 65.8686 180.358 68.2404V76.5096C180.358 78.8494 181 80.7244 182.284 82.1346C183.569 83.5128 185.335 84.2019 187.582 84.2019C189.862 84.2019 191.548 83.5609 192.639 82.2788C193.763 80.9647 194.325 79.3301 194.325 77.375V76.5096H200.586V77.1827C200.586 81.125 199.447 84.234 197.167 86.5096C194.919 88.7532 191.724 89.875 187.582 89.875Z" fill="white"/>
<path d="M217.471 89.875C214.87 89.875 212.574 89.4103 210.583 88.4808C208.592 87.5513 207.035 86.2212 205.911 84.4904C204.787 82.7596 204.225 80.6763 204.225 78.2404V76.8942H210.487V78.2404C210.487 80.2596 211.113 81.7821 212.365 82.8077C213.617 83.8013 215.319 84.2981 217.471 84.2981C219.654 84.2981 221.275 83.8654 222.335 83C223.427 82.1346 223.973 81.0288 223.973 79.6827C223.973 78.7532 223.7 78 223.154 77.4231C222.64 76.8462 221.869 76.3814 220.842 76.0288C219.847 75.6442 218.626 75.2917 217.182 74.9712L216.074 74.7308C213.762 74.2179 211.771 73.5769 210.101 72.8077C208.464 72.0064 207.196 70.9647 206.296 69.6827C205.43 68.4006 204.996 66.734 204.996 64.6827C204.996 62.6314 205.478 60.8846 206.441 59.4423C207.436 57.9679 208.817 56.8462 210.583 56.0769C212.381 55.2756 214.484 54.875 216.893 54.875C219.301 54.875 221.436 55.2917 223.298 56.125C225.193 56.9263 226.67 58.1442 227.729 59.7788C228.821 61.3814 229.367 63.4006 229.367 65.8365V67.2788H223.106V65.8365C223.106 64.5545 222.849 63.5288 222.335 62.7596C221.853 61.9583 221.147 61.3814 220.216 61.0288C219.285 60.6442 218.177 60.4519 216.893 60.4519C214.966 60.4519 213.537 60.8205 212.606 61.5577C211.707 62.2628 211.257 63.2404 211.257 64.4904C211.257 65.3237 211.466 66.0288 211.884 66.6058C212.333 67.1827 212.991 67.6635 213.858 68.0481C214.725 68.4327 215.833 68.7692 217.182 69.0577L218.289 69.2981C220.697 69.8109 222.785 70.4679 224.551 71.2692C226.349 72.0705 227.745 73.1282 228.741 74.4423C229.736 75.7564 230.234 77.4391 230.234 79.4904C230.234 81.5417 229.704 83.3526 228.645 84.9231C227.617 86.4615 226.14 87.6795 224.213 88.5769C222.319 89.4423 220.071 89.875 217.471 89.875Z" fill="white"/>
<path d="M246.679 89.875C244.078 89.875 241.783 89.4103 239.792 88.4808C237.801 87.5513 236.244 86.2212 235.12 84.4904C233.996 82.7596 233.434 80.6763 233.434 78.2404V76.8942H239.695V78.2404C239.695 80.2596 240.322 81.7821 241.574 82.8077C242.826 83.8013 244.528 84.2981 246.679 84.2981C248.863 84.2981 250.484 83.8654 251.544 83C252.636 82.1346 253.181 81.0288 253.181 79.6827C253.181 78.7532 252.908 78 252.363 77.4231C251.849 76.8462 251.078 76.3814 250.051 76.0288C249.055 75.6442 247.835 75.2917 246.39 74.9712L245.283 74.7308C242.971 74.2179 240.98 73.5769 239.31 72.8077C237.673 72.0064 236.404 70.9647 235.505 69.6827C234.638 68.4006 234.205 66.734 234.205 64.6827C234.205 62.6314 234.686 60.8846 235.65 59.4423C236.645 57.9679 238.026 56.8462 239.792 56.0769C241.59 55.2756 243.693 54.875 246.101 54.875C248.509 54.875 250.645 55.2917 252.507 56.125C254.402 56.9263 255.879 58.1442 256.938 59.7788C258.03 61.3814 258.576 63.4006 258.576 65.8365V67.2788H252.314V65.8365C252.314 64.5545 252.058 63.5288 251.544 62.7596C251.062 61.9583 250.356 61.3814 249.425 61.0288C248.493 60.6442 247.386 60.4519 246.101 60.4519C244.175 60.4519 242.746 60.8205 241.815 61.5577C240.916 62.2628 240.466 63.2404 240.466 64.4904C240.466 65.3237 240.675 66.0288 241.092 66.6058C241.542 67.1827 242.2 67.6635 243.067 68.0481C243.934 68.4327 245.042 68.7692 246.39 69.0577L247.498 69.2981C249.906 69.8109 251.993 70.4679 253.759 71.2692C255.557 72.0705 256.954 73.1282 257.95 74.4423C258.945 75.7564 259.443 77.4391 259.443 79.4904C259.443 81.5417 258.913 83.3526 257.853 84.9231C256.826 86.4615 255.349 87.6795 253.422 88.5769C251.528 89.4423 249.28 89.875 246.679 89.875Z" fill="white"/>
<path d="M276.996 89.875C272.822 89.875 269.514 88.7212 267.074 86.4135C264.634 84.0737 263.414 80.7404 263.414 76.4135V68.3365C263.414 64.0096 264.634 60.6923 267.074 58.3846C269.514 56.0449 272.822 54.875 276.996 54.875C281.138 54.875 284.333 56.0128 286.58 58.2885C288.86 60.5321 290 63.625 290 67.5673V67.8558H283.739V67.375C283.739 65.3878 283.177 63.7532 282.053 62.4712C280.961 61.1891 279.276 60.5481 276.996 60.5481C274.748 60.5481 272.982 61.2372 271.698 62.6154C270.413 63.9936 269.771 65.8686 269.771 68.2404V76.5096C269.771 78.8494 270.413 80.7244 271.698 82.1346C272.982 83.5128 274.748 84.2019 276.996 84.2019C279.276 84.2019 280.961 83.5609 282.053 82.2788C283.177 80.9647 283.739 79.3301 283.739 77.375V76.5096H290V77.1827C290 81.125 288.86 84.234 286.58 86.5096C284.333 88.7532 281.138 89.875 276.996 89.875Z" fill="white"/>
<path d="M179.344 116.099C178.032 116.099 176.981 115.715 176.192 114.947C175.413 114.168 175.024 113.032 175.024 111.539V109.011C175.024 107.518 175.413 106.387 176.192 105.619C176.981 104.84 178.032 104.451 179.344 104.451C180.645 104.451 181.637 104.819 182.32 105.555C183.013 106.28 183.36 107.272 183.36 108.531V108.611H182.336V108.499C182.336 107.582 182.091 106.835 181.6 106.259C181.12 105.672 180.368 105.379 179.344 105.379C178.309 105.379 177.499 105.694 176.912 106.323C176.336 106.952 176.048 107.838 176.048 108.979V111.571C176.048 112.712 176.336 113.598 176.912 114.227C177.499 114.856 178.309 115.171 179.344 115.171C180.368 115.171 181.12 114.883 181.6 114.307C182.091 113.72 182.336 112.968 182.336 112.051V111.811H183.36V112.019C183.36 113.278 183.013 114.275 182.32 115.011C181.637 115.736 180.645 116.099 179.344 116.099ZM189.29 116.099C188.49 116.099 187.775 115.96 187.146 115.683C186.517 115.395 186.021 114.963 185.658 114.387C185.295 113.8 185.114 113.059 185.114 112.163V111.859H186.138V112.163C186.138 113.198 186.431 113.966 187.018 114.467C187.615 114.958 188.373 115.203 189.29 115.203C190.218 115.203 190.933 114.99 191.434 114.563C191.935 114.126 192.186 113.571 192.186 112.899C192.186 112.451 192.074 112.094 191.85 111.827C191.637 111.55 191.333 111.331 190.938 111.171C190.554 111 190.106 110.851 189.594 110.723L188.57 110.467C187.962 110.307 187.418 110.11 186.938 109.875C186.458 109.63 186.079 109.315 185.802 108.931C185.525 108.536 185.386 108.035 185.386 107.427C185.386 106.819 185.541 106.291 185.85 105.843C186.17 105.395 186.607 105.054 187.162 104.819C187.717 104.574 188.362 104.451 189.098 104.451C189.834 104.451 190.495 104.579 191.082 104.835C191.679 105.091 192.149 105.47 192.49 105.971C192.842 106.462 193.018 107.08 193.018 107.827V108.579H191.994V107.827C191.994 107.24 191.866 106.766 191.61 106.403C191.354 106.04 191.007 105.774 190.57 105.603C190.133 105.432 189.642 105.347 189.098 105.347C188.319 105.347 187.674 105.528 187.162 105.891C186.661 106.243 186.41 106.755 186.41 107.427C186.41 107.875 186.511 108.232 186.714 108.499C186.927 108.766 187.221 108.979 187.594 109.139C187.978 109.299 188.426 109.443 188.938 109.571L189.962 109.827C190.549 109.966 191.087 110.152 191.578 110.387C192.069 110.611 192.463 110.926 192.762 111.331C193.061 111.726 193.21 112.248 193.21 112.899C193.21 113.55 193.045 114.115 192.714 114.595C192.394 115.075 191.941 115.448 191.354 115.715C190.767 115.971 190.079 116.099 189.29 116.099ZM199.149 116.099C198.349 116.099 197.635 115.96 197.005 115.683C196.376 115.395 195.88 114.963 195.517 114.387C195.155 113.8 194.973 113.059 194.973 112.163V111.859H195.997V112.163C195.997 113.198 196.291 113.966 196.877 114.467C197.475 114.958 198.232 115.203 199.149 115.203C200.077 115.203 200.792 114.99 201.293 114.563C201.795 114.126 202.045 113.571 202.045 112.899C202.045 112.451 201.933 112.094 201.709 111.827C201.496 111.55 201.192 111.331 200.797 111.171C200.413 111 199.965 110.851 199.453 110.723L198.429 110.467C197.821 110.307 197.277 110.11 196.797 109.875C196.317 109.63 195.939 109.315 195.661 108.931C195.384 108.536 195.245 108.035 195.245 107.427C195.245 106.819 195.4 106.291 195.709 105.843C196.029 105.395 196.467 105.054 197.021 104.819C197.576 104.574 198.221 104.451 198.957 104.451C199.693 104.451 200.355 104.579 200.941 104.835C201.539 105.091 202.008 105.47 202.349 105.971C202.701 106.462 202.877 107.08 202.877 107.827V108.579H201.853V107.827C201.853 107.24 201.725 106.766 201.469 106.403C201.213 106.04 200.867 105.774 200.429 105.603C199.992 105.432 199.501 105.347 198.957 105.347C198.179 105.347 197.533 105.528 197.021 105.891C196.52 106.243 196.269 106.755 196.269 107.427C196.269 107.875 196.371 108.232 196.573 108.499C196.787 108.766 197.08 108.979 197.453 109.139C197.837 109.299 198.285 109.443 198.797 109.571L199.821 109.827C200.408 109.966 200.947 110.152 201.437 110.387C201.928 110.611 202.323 110.926 202.621 111.331C202.92 111.726 203.069 112.248 203.069 112.899C203.069 113.55 202.904 114.115 202.573 114.595C202.253 115.075 201.8 115.448 201.213 115.715C200.627 115.971 199.939 116.099 199.149 116.099ZM209.47 115.875V104.675H210.494V114.947H216.382V115.875H209.47ZM218.22 115.875V104.675H219.244V115.875H218.22ZM221.393 115.875V114.947H222.993V105.603H221.393V104.675H226.945C227.585 104.675 228.156 104.792 228.657 105.027C229.158 105.262 229.548 105.592 229.825 106.019C230.113 106.435 230.257 106.92 230.257 107.475V107.603C230.257 108.126 230.156 108.558 229.953 108.899C229.75 109.24 229.505 109.507 229.217 109.699C228.929 109.891 228.646 110.03 228.369 110.115V110.307C228.646 110.371 228.929 110.504 229.217 110.707C229.516 110.899 229.761 111.166 229.953 111.507C230.156 111.848 230.257 112.28 230.257 112.803V112.963C230.257 113.571 230.108 114.094 229.809 114.531C229.521 114.968 229.121 115.304 228.609 115.539C228.108 115.763 227.537 115.875 226.897 115.875H221.393ZM224.017 114.947H226.801C227.601 114.947 228.204 114.76 228.609 114.387C229.025 114.014 229.233 113.512 229.233 112.883V112.755C229.233 112.126 229.025 111.624 228.609 111.251C228.204 110.878 227.601 110.691 226.801 110.691H224.017V114.947ZM224.017 109.763H226.865C227.601 109.763 228.177 109.582 228.593 109.219C229.02 108.846 229.233 108.36 229.233 107.763V107.603C229.233 107.006 229.02 106.526 228.593 106.163C228.177 105.79 227.601 105.603 226.865 105.603H224.017V109.763ZM232.564 115.875V104.675H236.948C237.641 104.675 238.249 104.792 238.772 105.027C239.305 105.262 239.721 105.603 240.02 106.051C240.329 106.488 240.484 107.022 240.484 107.651V107.811C240.484 108.568 240.302 109.166 239.94 109.603C239.577 110.03 239.15 110.312 238.66 110.451V110.643C239.033 110.654 239.348 110.771 239.604 110.995C239.86 111.219 239.988 111.576 239.988 112.067V115.875H238.964V112.179C238.964 111.838 238.868 111.576 238.676 111.395C238.494 111.214 238.217 111.123 237.844 111.123H233.588V115.875H232.564ZM233.588 110.195H236.852C237.684 110.195 238.324 110.003 238.772 109.619C239.23 109.224 239.46 108.664 239.46 107.939V107.859C239.46 107.134 239.236 106.579 238.788 106.195C238.35 105.8 237.705 105.603 236.852 105.603H233.588V110.195ZM241.729 115.875L245.393 104.675H247.217L250.881 115.875H249.809L248.849 112.899H243.761L242.801 115.875H241.729ZM244.049 111.971H248.561L246.401 105.283H246.209L244.049 111.971ZM252.704 115.875V104.675H257.088C257.781 104.675 258.389 104.792 258.912 105.027C259.445 105.262 259.861 105.603 260.16 106.051C260.469 106.488 260.624 107.022 260.624 107.651V107.811C260.624 108.568 260.443 109.166 260.08 109.603C259.717 110.03 259.291 110.312 258.8 110.451V110.643C259.173 110.654 259.488 110.771 259.744 110.995C260 111.219 260.128 111.576 260.128 112.067V115.875H259.104V112.179C259.104 111.838 259.008 111.576 258.816 111.395C258.635 111.214 258.357 111.123 257.984 111.123H253.728V115.875H252.704ZM253.728 110.195H256.992C257.824 110.195 258.464 110.003 258.912 109.619C259.371 109.224 259.6 108.664 259.6 107.939V107.859C259.6 107.134 259.376 106.579 258.928 106.195C258.491 105.8 257.845 105.603 256.992 105.603H253.728V110.195ZM265.554 115.875V111.443L261.49 104.675H262.706L265.97 110.275H266.162L269.426 104.675H270.642L266.578 111.443V115.875H265.554Z" fill="white"/>
</svg>
