<svg width="220" height="174" viewBox="0 0 220 174" fill="none" xmlns="http://www.w3.org/2000/svg">
<path d="M165.106 168.709V166.294H166.981C167.274 166.294 167.484 166.432 167.575 166.688L168.316 168.709H169.487L168.664 166.505C168.508 166.111 168.207 165.855 167.786 165.773C168.637 165.553 169.195 164.904 169.195 164.117C169.195 163.047 168.353 162.306 167.136 162.306H164.008V168.709H165.106ZM165.106 163.294H167.081C167.703 163.294 168.106 163.696 168.106 164.282C168.106 164.84 167.758 165.325 167.081 165.325H165.106V163.294Z" fill="white"/>
<path fill-rule="evenodd" clip-rule="evenodd" d="M166.486 172.14C169.959 172.14 172.775 169.324 172.775 165.851C172.775 162.377 169.959 159.562 166.486 159.562C163.013 159.562 160.197 162.377 160.197 165.851C160.197 169.324 163.013 172.14 166.486 172.14ZM166.486 173.283C170.591 173.283 173.919 169.956 173.919 165.851C173.919 161.746 170.591 158.418 166.486 158.418C162.381 158.418 159.054 161.746 159.054 165.851C159.054 169.956 162.381 173.283 166.486 173.283Z" fill="white"/>
<path fill-rule="evenodd" clip-rule="evenodd" d="M0 59.7453C0.0692371 50.3549 3.90327 41.9497 9.83823 34.8913C15.8023 27.7984 24.149 21.7187 34.0103 16.7582C53.7522 6.82746 80.6228 0.85083 110 0.85083C139.377 0.85083 166.248 6.82746 185.99 16.7582C195.851 21.7187 204.198 27.7984 210.162 34.8913C216.098 41.9516 219.933 50.3596 220 59.7531C219.754 85.8969 170.6 107.058 110 107.058C49.3945 107.058 0.236334 85.8927 0 59.7453ZM11.5376 60.0041C11.5376 55.0203 13.5211 49.722 18.0805 44.2996C22.6653 38.8469 29.5829 33.6286 38.5838 29.1009C56.5663 20.0553 81.8116 14.2947 110 14.2947C138.188 14.2947 163.434 20.0553 181.416 29.1009C190.417 33.6286 197.335 38.8469 201.919 44.2996C206.479 49.722 208.462 55.0203 208.462 60.0041C208.462 64.9878 206.479 70.2861 201.919 75.7086C197.335 81.1612 190.417 86.3795 181.416 90.9072C163.434 99.9529 138.188 105.713 110 105.713C81.8116 105.713 56.5663 99.9529 38.5838 90.9072C29.5829 86.3795 22.6653 81.1612 18.0805 75.7086C13.5211 70.2861 11.5376 64.9878 11.5376 60.0041Z" fill="white"/>
<path fill-rule="evenodd" clip-rule="evenodd" d="M33.0781 47.9505C33.1252 54.7551 35.7947 60.8457 39.9276 65.9603C44.0797 71.0987 49.8907 75.5032 56.7562 79.0968C70.5006 86.2911 89.208 90.6208 109.66 90.6208C130.113 90.6208 148.82 86.2911 162.565 79.0968C169.43 75.5032 175.241 71.0987 179.393 65.9603C183.526 60.8462 186.195 54.7562 186.243 47.9523C186.075 29.011 151.852 13.6793 109.66 13.6793C67.4698 13.6793 33.2478 29.01 33.0781 47.9505ZM41.1107 47.7674C41.1107 51.3778 42.4916 55.2162 45.6658 59.1445C48.8578 63.0946 53.6739 66.875 59.9403 70.1551C72.4598 76.7082 90.0356 80.8814 109.66 80.8814C129.285 80.8814 146.861 76.7082 159.38 70.1551C165.647 66.875 170.463 63.0946 173.655 59.1445C176.829 55.2162 178.21 51.3778 178.21 47.7674C178.21 44.1569 176.829 40.3185 173.655 36.3903C170.463 32.4401 165.647 28.6597 159.38 25.3796C146.861 18.8265 129.285 14.6533 109.66 14.6533C90.0356 14.6533 72.4598 18.8265 59.9403 25.3796C53.6739 28.6597 48.8578 32.4401 45.6658 36.3903C42.4916 40.3185 41.1107 44.1569 41.1107 47.7674Z" fill="white"/>
<path fill-rule="evenodd" clip-rule="evenodd" d="M60.8369 41.0108C61.3068 45.0138 62.8622 48.6311 65.0708 51.7509C67.7272 55.5032 71.4448 58.7194 75.837 61.3436C84.6301 66.5972 96.5982 69.7589 109.683 69.7589C122.767 69.7589 134.735 66.5972 143.528 61.3436C147.921 58.7194 151.638 55.5032 154.295 51.7509C156.3 48.9184 157.767 45.676 158.371 42.1071C158.068 29.6254 143.625 19.1117 123.848 15.6344C130.628 16.9678 136.65 19.2252 141.491 22.1175C145.5 24.5127 148.581 27.2733 150.624 30.1579C152.654 33.0264 153.538 35.8293 153.538 38.4658C153.538 41.1023 152.654 43.9052 150.624 46.7738C148.581 49.6583 145.5 52.4189 141.491 54.8141C133.482 59.5994 122.238 62.6468 109.683 62.6468C97.1277 62.6468 85.8835 59.5994 77.8741 54.8141C73.8651 52.4189 70.784 49.6583 68.7419 46.7738C66.7112 43.9052 65.8277 41.1023 65.8277 38.4658C65.8277 35.8293 66.7112 33.0264 68.7419 30.1579C70.784 27.2733 73.8651 24.5127 77.8741 22.1175C83.1244 18.9806 89.7649 16.5905 97.2534 15.3161C77.0712 18.3377 61.9687 28.6088 60.8369 41.0108Z" fill="white"/>
<circle r="49.376" transform="matrix(1 0 0 -1 94.2335 124.192)" fill="black"/>
<circle r="49.376" transform="matrix(1 0 0 -1 109.303 124.192)" fill="white"/>
</svg>
