<svg width="393" height="150" viewBox="0 0 393 150" fill="none" xmlns="http://www.w3.org/2000/svg">
<path fill-rule="evenodd" clip-rule="evenodd" d="M61.9868 0.231882C61.4886 -0.0772941 60.8583 -0.0772941 60.3602 0.231882L0.729104 37.2443C0.16777 37.5927 -0.0920315 38.2429 0.0292968 38.8548V112.405C0.0292968 112.777 0.229973 113.12 0.554131 113.302L12.9648 120.269C13.0677 120.345 13.1789 120.407 13.2955 120.455L13.3761 120.5C13.735 120.701 14.138 120.661 14.4404 120.465C14.5271 120.431 14.6119 120.389 14.6939 120.338L39.1839 105.137L49.3583 111.398V141.772C49.3583 142.144 49.5589 142.487 49.8831 142.669L62.705 149.867C63.1249 150.103 63.6052 150.008 63.9142 149.719C63.9496 149.7 63.9845 149.68 64.0189 149.658L121.612 113.292C121.995 113.05 122.235 112.668 122.308 112.254C122.333 112.143 122.346 112.028 122.346 111.909V38.5877L122.347 38.5546C122.347 38.4348 122.333 38.317 122.306 38.203C122.222 37.8453 122.013 37.5262 121.711 37.3072C121.675 37.2806 121.637 37.2556 121.599 37.2323L61.9868 0.231882ZM64.2364 145.873L119.262 111.128V41.3271L64.2364 75.4809V145.873ZM61.9858 73.2476L117.88 38.5546L61.1735 3.35728L3.8508 38.9369L12.8934 44.0133C12.9048 44.0058 12.9163 43.9985 12.9279 43.9913L60.3206 14.651C60.565 14.4884 60.8584 14.3937 61.1739 14.3937C61.353 14.3935 61.5322 14.4246 61.7029 14.4867C61.8041 14.5236 61.9023 14.5714 61.9958 14.6302L97.98 37.2489C98.4282 37.5306 98.7006 38.0225 98.7015 38.5519C98.7024 39.0813 98.4317 39.5741 97.9845 39.8574L53.1209 68.271L61.9858 73.2476ZM49.3583 68.0021C49.3055 67.4427 49.5614 66.8744 50.0687 66.5531L70.7053 53.4833L61.5041 47.7722C61.3977 47.7954 61.2872 47.8076 61.1739 47.8076C61.06 47.8076 60.949 47.7953 60.8422 47.7719L16.1268 75.5262L49.3583 95.9764V68.0021ZM36.247 103.33L14.9075 116.575V90.1977L36.247 103.33ZM59.6317 44.893L14.9075 72.6529V46.3934L59.6317 18.7051V44.893ZM62.7161 18.726V44.8943L73.6001 51.6499L94.2692 38.5594L62.7161 18.726Z" fill="white"/>
<path d="M170.266 68.4466V55.3165H187.8V68.4466H191.225V39.9029H187.8V52.1767H170.266V39.9029H166.841V68.4466H170.266Z" fill="white"/>
<path d="M210.577 68.8951C219.222 68.8951 224.4 62.6563 224.4 54.0932C224.4 45.2446 218.814 39.4543 210.577 39.4543C202.014 39.4543 196.835 45.6116 196.835 54.0932C196.835 63.1048 202.422 68.8951 210.577 68.8951ZM210.577 65.7553C204.297 65.7553 200.342 61.2291 200.342 54.0932C200.342 47.0388 204.297 42.5942 210.577 42.5942C216.897 42.5942 220.894 47.0388 220.894 54.0932C220.894 61.2291 216.938 65.7553 210.577 65.7553Z" fill="white"/>
<path d="M242.474 68.8951C251.118 68.8951 256.297 62.6563 256.297 54.0932C256.297 45.2446 250.711 39.4543 242.474 39.4543C233.911 39.4543 228.732 45.6116 228.732 54.0932C228.732 63.1048 234.318 68.8951 242.474 68.8951ZM242.474 65.7553C236.194 65.7553 232.239 61.2291 232.239 54.0932C232.239 47.0388 236.194 42.5942 242.474 42.5942C248.794 42.5942 252.79 47.0388 252.79 54.0932C252.79 61.2291 248.835 65.7553 242.474 65.7553Z" fill="white"/>
<path d="M265.359 68.4466V57.1514H275.43C280.487 57.1514 284.564 54.0524 284.564 48.2621C284.564 43.6951 281.384 39.9029 275.43 39.9029H261.933V68.4466H265.359ZM265.359 43.0427H275.594C278.611 43.0427 281.058 44.8776 281.058 48.2621C281.058 51.4427 279.141 54.0116 275.594 54.0116H265.359V43.0427Z" fill="white"/>
<path d="M309.507 68.4466V65.3068H293.033V55.1126H307.509V52.0543H293.033V43.0427H309.14V39.9029H289.649V68.4466H309.507Z" fill="white"/>
<path d="M318.4 68.4466V56.6621H328.268C329.614 56.6621 330.592 57.3145 331.041 58.5378L334.711 68.4466H338.381L334.425 57.9262C333.895 56.499 332.835 55.5204 331.326 55.1126C334.792 54.0116 337.076 51.1573 337.076 47.7728C337.076 43.1242 333.365 39.9029 327.983 39.9029H314.975V68.4466H318.4ZM318.4 43.0427H328.146C331.245 43.0427 333.61 44.7553 333.61 48.099C333.61 51.1573 331.693 53.6039 328.146 53.6039H318.4V43.0427Z" fill="white"/>
<path d="M170.266 112.136V99.1281H185.068V95.9883H170.266V86.732H186.291V83.5922H166.841V112.136H170.266Z" fill="white"/>
<path d="M202.582 112.584C209.922 112.625 213.959 107.977 213.959 102.553V83.5922H210.534V102.472C210.534 106.998 206.945 109.404 202.582 109.404C198.219 109.404 194.631 106.998 194.631 102.472V83.5922H191.206V102.553C191.206 107.977 195.202 112.584 202.582 112.584Z" fill="white"/>
<path d="M224.064 112.136V100.351H233.932C235.278 100.351 236.256 101.004 236.705 102.227L240.375 112.136H244.045L240.089 101.616C239.559 100.188 238.499 99.2097 236.99 98.8019C240.456 97.701 242.74 94.8466 242.74 91.4621C242.74 86.8136 239.029 83.5922 233.647 83.5922H220.639V112.136H224.064ZM224.064 86.732H233.81C236.909 86.732 239.274 88.4446 239.274 91.7883C239.274 94.8466 237.357 97.2932 233.81 97.2932H224.064V86.732Z" fill="white"/>
<path d="M252.297 112.136V88.4854L268.445 112.136H272.359V83.5922H268.934V107.243L252.787 83.5922H248.872V112.136H252.297Z" fill="white"/>
<path d="M282.721 112.136V83.5922H279.295V112.136H282.721Z" fill="white"/>
<path d="M300.903 112.136V86.732H310.771V83.5922H287.61V86.732H297.478V112.136H300.903Z" fill="white"/>
<path d="M326.784 112.584C334.124 112.625 338.161 107.977 338.161 102.553V83.5922H334.735V102.472C334.735 106.998 331.147 109.404 326.784 109.404C322.421 109.404 318.832 106.998 318.832 102.472V83.5922H315.407V102.553C315.407 107.977 319.403 112.584 326.784 112.584Z" fill="white"/>
<path d="M348.266 112.136V100.351H358.134C359.479 100.351 360.458 101.004 360.907 102.227L364.577 112.136H368.246L364.291 101.616C363.761 100.188 362.701 99.2097 361.192 98.8019C364.658 97.701 366.942 94.8466 366.942 91.4621C366.942 86.8136 363.231 83.5922 357.848 83.5922H344.841V112.136H348.266ZM348.266 86.732H358.012C361.111 86.732 363.476 88.4446 363.476 91.7883C363.476 94.8466 361.559 97.2932 358.012 97.2932H348.266V86.732Z" fill="white"/>
<path d="M392.932 112.136V108.996H376.458V98.8019H390.934V95.7437H376.458V86.732H392.565V83.5922H373.074V112.136H392.932Z" fill="white"/>
<path d="M350.158 47.386V45.4932H351.628C351.857 45.4932 352.022 45.6008 352.094 45.8015L352.675 47.386H353.592L352.947 45.6581C352.825 45.3498 352.589 45.1491 352.259 45.0846C352.926 44.9125 353.363 44.4035 353.363 43.7869C353.363 42.948 352.703 42.3673 351.75 42.3673H349.298V47.386H350.158ZM350.158 43.1416H351.707C352.194 43.1416 352.51 43.4571 352.51 43.9159C352.51 44.3533 352.237 44.7333 351.707 44.7333H350.158V43.1416Z" fill="white"/>
<path fill-rule="evenodd" clip-rule="evenodd" d="M351.239 50.0746C353.962 50.0746 356.168 47.8678 356.168 45.1456C356.168 42.4233 353.962 40.2165 351.239 40.2165C348.517 40.2165 346.31 42.4233 346.31 45.1456C346.31 47.8678 348.517 50.0746 351.239 50.0746ZM351.239 50.9708C354.456 50.9708 357.065 48.3627 357.065 45.1456C357.065 41.9284 354.456 39.3203 351.239 39.3203C348.022 39.3203 345.414 41.9284 345.414 45.1456C345.414 48.3627 348.022 50.9708 351.239 50.9708Z" fill="white"/>
</svg>
