<svg width="141" height="153" viewBox="0 0 141 153" fill="none" xmlns="http://www.w3.org/2000/svg">
<path fill-rule="evenodd" clip-rule="evenodd" d="M55.8415 8.21532C47.5291 8.05581 36.9139 7.96666 27.5735 12.1603C22.0814 14.6261 17.1033 18.5738 13.4528 24.9802C9.7747 31.4353 7.3091 40.6275 7.3091 53.7705V57.4256H-0.000976562V53.7705C-0.000976562 39.747 2.62715 29.2135 7.10148 21.3612C11.6035 13.4603 17.8365 8.51891 24.5794 5.49151C35.841 0.435288 48.7325 0.727703 57.0285 0.91588C58.4192 0.947424 59.6807 0.976039 60.7837 0.97604L64.4388 0.976046V0.976196H68.8356V18.0531L51.7392 26.8001C52.2391 33.7318 55.0175 43.1144 60.1953 51.0189C64.1543 57.0628 69.3169 61.9708 75.6868 64.4145C72.7547 65.4508 69.8902 66.731 67.1254 68.2551C61.7833 64.8808 57.4416 60.1559 54.0803 55.0244C47.5935 45.1215 44.3467 33.1445 44.3467 24.6066V22.371L61.5255 13.5818V8.28627H55.7295L55.8415 8.21532ZM140.014 111.374C140.014 86.3679 119.742 66.0962 94.7359 66.0962C69.7294 66.0962 49.4578 86.3679 49.4578 111.374V152.509H56.7678V111.374C56.7678 90.4051 73.7667 73.4063 94.7359 73.4063C115.705 73.4063 132.704 90.4051 132.704 111.374V152.509H140.014V111.374ZM27.9782 17.8854C31.0059 15.9289 34.4768 14.766 38.0614 14.4985C35.5744 17.4854 34.0784 21.3266 34.0784 25.5172V152.509H26.7683V25.5172C26.7683 22.8527 27.1929 20.2875 27.9782 17.8854ZM99.4308 80.8102C102.483 85.0922 104.557 91.1016 105.889 98.3518C108.227 111.076 108.091 126.359 107.969 140.152L107.969 140.154C107.943 143.137 107.917 146.051 107.917 148.854L107.917 152.509H115.227V148.854C115.227 146.205 115.253 143.403 115.28 140.494L115.28 140.491C115.407 126.702 115.557 110.518 113.079 97.031C112.13 91.8643 110.768 86.9087 108.777 82.5293C105.715 81.6619 102.584 81.089 99.4308 80.8102Z" fill="white"/>
<circle cx="120.924" cy="32.3013" r="5.78754" fill="white"/>
</svg>
