<svg width="190" height="190" viewBox="0 0 190 190" fill="none" xmlns="http://www.w3.org/2000/svg">
<path d="M89.2998 190L89.2998 0.000137329L94.9998 0.000136973C147.467 0.000133697 190 42.533 190 95.0001C190 147.467 147.467 190 94.9998 190L89.2998 190Z" fill="white"/>
<path d="M0 190L-1.77948e-06 161.5C-5.05542e-06 109.033 42.5329 66.5001 94.9999 66.5001L94.9999 190L0 190Z" fill="white"/>
<path d="M0 66.5L-4.15212e-06 6.10352e-05L89.2999 5.54594e-05L89.2999 66.5L0 66.5Z" fill="white"/>
<path d="M94.998 190C60.8944 190 33.248 162.354 33.248 128.25C33.248 94.1465 60.8944 66.5001 94.998 66.5001C129.102 66.5001 156.748 94.1465 156.748 128.25C156.748 162.354 129.102 190 94.998 190Z" fill="black"/>
<path d="M71.25 128.724L88.6231 121.872L95.475 104.499L102.327 121.872L119.7 128.724L102.327 135.576L95.475 152.949L88.6231 135.576L71.25 128.724Z" fill="white"/>
</svg>
