<svg width="263" height="193" viewBox="0 0 263 193" fill="none" xmlns="http://www.w3.org/2000/svg">
<path fill-rule="evenodd" clip-rule="evenodd" d="M22.4768 97.5221V117.799H5.16406V53.8152C5.16406 50.8109 6.35747 47.9296 8.48187 45.8052C10.6063 43.6808 13.4876 42.4873 16.492 42.4873H22.4768V65.5382C24.5973 63.4101 27.1252 61.7199 29.9173 60.5731C33.3658 59.1567 37.1108 58.6132 40.8198 58.9908C44.5287 59.3684 48.0871 60.6554 51.1795 62.7378C54.2719 64.8201 56.8025 67.6334 58.5471 70.9281C60.1206 73.8998 61.0108 77.1803 61.1588 80.5304H61.2094V117.799H43.8965V104.025L43.8866 104.026V85.7129C43.8741 83.1598 42.8512 80.7156 41.0415 78.9148C39.2318 77.1139 36.7826 76.1029 34.2295 76.103C27.8009 76.103 22.4769 80.3887 22.4769 86.704V97.5222L22.4768 97.5221ZM232.29 59.1582C226.281 59.1563 220.406 60.9366 215.409 64.2738C210.412 67.6111 206.517 72.3553 204.216 77.9065C202.967 80.9209 202.219 84.0996 201.983 87.319L201.92 87.2988V88.5026C201.896 89.1907 201.896 89.8799 201.92 90.5691V125.134C201.92 128.138 203.114 131.02 205.238 133.144C207.363 135.269 210.243 136.462 213.248 136.462H219.233V116.969C221.489 118.042 223.88 118.838 226.356 119.33C232.25 120.502 238.358 119.9 243.909 117.6C249.461 115.299 254.205 111.404 257.542 106.407C260.879 101.41 262.66 95.5354 262.658 89.5265C262.658 81.4723 259.458 73.748 253.763 68.0529C248.068 62.3577 240.344 59.1582 232.29 59.1582ZM232.29 104.63C229.302 104.63 226.382 103.745 223.898 102.085C221.415 100.425 219.479 98.0664 218.335 95.3065C217.192 92.5467 216.893 89.5098 217.476 86.5799C218.058 83.65 219.497 80.9588 221.609 78.8464C223.722 76.7341 226.413 75.2956 229.343 74.7128C232.273 74.13 235.309 74.4291 238.069 75.5723C240.829 76.7155 243.188 78.6514 244.848 81.1352C246.507 83.619 247.394 86.5392 247.394 89.5265C247.394 93.5323 245.802 97.3741 242.97 100.207C240.137 103.039 236.295 104.63 232.29 104.63ZM81.1061 64.2748C86.1032 60.9376 91.9778 59.1573 97.9867 59.1592C106.041 59.1592 113.765 62.3587 119.46 68.0538C125.155 73.749 128.355 81.4733 128.355 89.5275C128.357 95.5364 126.577 101.411 123.239 106.408C119.902 111.405 115.158 115.3 109.607 117.6C104.055 119.901 97.9469 120.503 92.0533 119.331C86.1597 118.16 80.746 115.266 76.497 111.017C72.248 106.768 69.3547 101.355 68.1829 95.461C67.0111 89.5674 67.6133 83.4587 69.9137 77.9075C72.2141 72.3563 76.1091 67.612 81.1061 64.2748ZM89.5954 102.086C92.0792 103.746 94.9994 104.631 97.9867 104.631C101.993 104.631 105.834 103.04 108.667 100.208C111.499 97.375 113.091 93.5333 113.091 89.5275C113.091 86.5402 112.205 83.62 110.545 81.1362C108.885 78.6524 106.527 76.7165 103.767 75.5733C101.007 74.4301 97.9701 74.131 95.0402 74.7138C92.1103 75.2966 89.4189 76.7351 87.3066 78.8474C85.1943 80.9597 83.7557 83.651 83.173 86.5809C82.5902 89.5107 82.8894 92.5476 84.0326 95.3075C85.1758 98.0674 87.1116 100.426 89.5954 102.086ZM148.256 64.2784C153.251 60.94 159.125 59.1582 165.134 59.1582C173.189 59.1582 180.914 62.3574 186.611 68.0523C192.307 73.7472 195.509 81.4715 195.511 89.5265C195.513 95.5351 193.733 101.409 190.397 106.406C187.06 111.403 182.316 115.298 176.765 117.599C171.215 119.899 165.106 120.502 159.213 119.331C156.733 118.838 154.337 118.04 152.078 116.965V119.149H152.086V136.462H146.101C146.009 136.462 145.917 136.461 145.824 136.459C142.917 136.39 140.144 135.205 138.083 133.144C135.958 131.02 134.765 128.138 134.765 125.134V90.2669C134.753 89.7796 134.753 89.2923 134.765 88.8056V87.2988L134.837 87.3218C135.072 84.1038 135.82 80.9264 137.067 77.9131C139.366 72.3617 143.26 67.6168 148.256 64.2784ZM156.742 102.085C159.226 103.745 162.146 104.63 165.134 104.63C169.14 104.63 172.981 103.039 175.814 100.207C178.646 97.3741 180.238 93.5323 180.238 89.5265C180.238 86.5392 179.352 83.619 177.692 81.1352C176.032 78.6514 173.673 76.7155 170.914 75.5723C168.154 74.4291 165.117 74.13 162.187 74.7128C159.257 75.2956 156.566 76.7341 154.454 78.8464C152.341 80.9588 150.903 83.65 150.32 86.5799C149.737 89.5098 150.036 92.5467 151.179 95.3065C152.323 98.0664 154.259 100.425 156.742 102.085Z" fill="white"/>
<path fill-rule="evenodd" clip-rule="evenodd" d="M55.375 0.814453C27.7619 0.814453 5.37695 23.1994 5.37695 50.8125V75.7733H22.1548V50.8125C22.1548 32.4655 37.028 17.5923 55.375 17.5923H210.957C226.871 17.5923 240.172 28.7828 243.419 43.7242C249.817 45.3402 255.811 48.3486 260.955 52.5648V50.8125C260.955 23.1994 238.57 0.814453 210.957 0.814453H55.375ZM251.531 75.7733C251.367 75.5046 251.198 75.239 251.022 74.9767C249.232 72.2974 246.894 70.0476 244.177 68.3666V75.7733H251.531Z" fill="white"/>
<path fill-rule="evenodd" clip-rule="evenodd" d="M5.41197 130.489C6.40501 157.227 28.3943 178.599 55.375 178.599H210.957C238.57 178.599 260.955 156.214 260.955 128.6V118.234C260.596 118.624 260.228 119.007 259.851 119.384C255.421 123.814 250.034 127.068 244.175 128.943C243.991 147.132 229.19 161.821 210.957 161.821H55.375C37.6619 161.821 23.1867 147.957 22.2076 130.489H5.41197ZM5.37695 117.408V103.64H22.1548V117.408H5.37695ZM244.177 107.14C245.479 106.129 246.651 104.954 247.661 103.64H244.177V107.14Z" fill="white"/>
<rect y="130.478" width="61.9637" height="17.2121" fill="white"/>
<rect y="192.441" width="61.9637" height="17.2121" transform="rotate(-90 0 192.441)" fill="white"/>
</svg>
