<svg width="50" height="50" viewBox="0 0 50 50" fill="none" xmlns="http://www.w3.org/2000/svg">
<path d="M40.2344 2.34375H9.76562C5.23516 2.34375 1.5625 6.01641 1.5625 10.5469V39.4531C1.5625 43.9836 5.23516 47.6562 9.76562 47.6562H40.2344C44.7648 47.6562 48.4375 43.9836 48.4375 39.4531V10.5469C48.4375 6.01641 44.7648 2.34375 40.2344 2.34375Z" fill="white"/>
<path d="M11.3278 35.7188V14.4531C11.324 14.4235 11.327 14.3934 11.3366 14.3651C11.3462 14.3368 11.3622 14.3111 11.3834 14.29C11.4045 14.2688 11.4302 14.2528 11.4585 14.2432C11.4868 14.2336 11.5169 14.2305 11.5465 14.2344C13.1305 14.1934 14.9997 14.0625 17.4372 14.0625C20.3122 14.0625 22.4215 14.6621 23.7653 15.9531C24.4181 16.5639 24.935 17.3053 25.2822 18.1291C25.6295 18.9529 25.7994 19.8406 25.7809 20.7344C25.7809 23.0898 24.9476 24.8398 23.2809 25.9844C21.6142 27.1289 19.5179 27.7018 16.9918 27.7031L15.234 27.7344V35.6875C15.2389 35.7215 15.2359 35.7561 15.225 35.7887C15.2142 35.8213 15.1959 35.8509 15.1717 35.8751C15.1474 35.8994 15.1178 35.9177 15.0852 35.9285C15.0527 35.9393 15.018 35.9424 14.984 35.9375H11.5778C11.4118 35.9375 11.3278 35.8652 11.3278 35.7188ZM15.234 17.1133V24.8047C15.234 24.8047 16.1247 24.7695 17.1872 24.7695C18.5843 24.7695 19.7145 24.4622 20.5778 23.8477C21.4411 23.2331 21.8734 22.2266 21.8747 20.8281C21.8747 19.599 21.4945 18.651 20.734 17.9844C19.9736 17.3177 18.8747 16.987 17.4372 16.9922C17.0836 16.9922 16.734 16.9922 16.3903 17.0078C16.0465 17.0234 15.7653 17.0234 15.5465 17.0234C15.3278 17.0234 15.2106 17.0156 15.234 17.1133ZM38.6715 30.8594C38.6715 33.252 37.109 34.375 37.109 34.375V34.3633C37.0153 34.4551 36.9137 34.541 36.8141 34.625C35.7386 35.5 34.2848 35.9375 32.4528 35.9375C30.6208 35.9375 29.1234 35.6003 27.9606 34.9258C27.8963 34.9034 27.8417 34.8595 27.8061 34.8015C27.7705 34.7434 27.7561 34.6749 27.7653 34.6074V31.6641C27.7624 31.6308 27.768 31.5974 27.7817 31.567C27.7954 31.5365 27.8166 31.5101 27.8434 31.4902C27.8646 31.4749 27.8908 31.4681 27.9167 31.471C27.9427 31.4739 27.9667 31.4863 27.984 31.5059C29.2235 32.4798 30.7515 33.0143 32.3278 33.0254C33.0557 33.0254 33.6129 32.8952 33.9997 32.6348C34.1779 32.5284 34.3256 32.3777 34.4283 32.1974C34.531 32.017 34.5852 31.813 34.5856 31.6055C34.5898 31.396 34.5503 31.1879 34.4696 30.9946C34.3888 30.8012 34.2687 30.6268 34.1168 30.4824C33.8043 30.1751 33.1898 29.8424 32.2731 29.4844C30.6051 28.8333 29.4437 28.1315 28.7887 27.3789C28.0955 26.6248 27.718 25.6335 27.734 24.6094C27.7344 23.9722 27.8713 23.3426 28.1354 22.7628C28.3995 22.183 28.7848 21.6665 29.2653 21.248C30.2432 20.3613 31.639 19.918 33.4528 19.918C35.1455 19.918 36.4476 20.1504 37.359 20.6152C37.4626 20.6777 37.5153 20.8105 37.5153 21.0254V23.6523C37.5153 23.9062 37.4215 23.9688 37.234 23.8477C36.1475 23.1338 34.8778 22.7493 33.5778 22.7402C32.8473 22.7402 32.3122 22.8789 31.9684 23.1523C31.812 23.2634 31.6838 23.4096 31.5943 23.5792C31.5047 23.7488 31.4562 23.9371 31.4528 24.1289C31.4522 24.3166 31.4908 24.5023 31.5662 24.6741C31.6415 24.846 31.7519 25.0002 31.8903 25.127C32.182 25.4121 32.7965 25.7441 33.734 26.123C35.3695 26.7624 36.5413 27.4342 37.2497 28.1387L37.2672 28.1563C37.9958 28.8262 38.6715 29.748 38.6715 30.8594Z" fill="black"/>
</svg>
