<svg width="23" height="15" viewBox="0 0 23 15" fill="none" xmlns="http://www.w3.org/2000/svg">
<path d="M2.86 14V8.94H7.56C10.2 8.94 12.16 7.22 12.16 4.4C12.16 1.9 10.42 -9.53674e-07 7.56 -9.53674e-07H0.46V14H2.86ZM2.86 2.16H7.44C8.82 2.16 9.72 3.08 9.72 4.4C9.72 5.66 8.94 6.78 7.44 6.78H2.86V2.16ZM18.2872 14.3C20.8872 14.3 22.3672 13.1 22.3672 11.14C22.3672 9.24 21.1072 8.6 19.0072 7.9L17.7272 7.48C16.9672 7.22 16.0472 7 16.0472 6.18C16.0472 5.46 16.6472 5.02 17.6872 5.02C18.9072 5.02 19.7672 5.58 19.8872 6.78H22.1272C21.8472 4.38 20.1672 3.08 17.7072 3.08C15.1672 3.08 13.7272 4.32 13.7272 6.2C13.7272 8.16 15.2472 8.76 17.0072 9.34L18.4072 9.8C19.3272 10.1 20.0072 10.26 20.0072 11.08C20.0072 11.9 19.3672 12.36 18.1672 12.36C16.8672 12.36 15.8872 11.76 15.8072 10.62H13.5272C13.6672 12.94 15.3872 14.3 18.2872 14.3Z" fill="white"/>
</svg>
