<svg width="290" height="113" viewBox="0 0 290 113" fill="none" xmlns="http://www.w3.org/2000/svg">
<circle cx="118.016" cy="4.39912" r="4.39912" fill="white"/>
<circle cx="133.583" cy="4.39912" r="4.39912" fill="white"/>
<path d="M60.8291 37.1552C60.8291 28.5134 65.8795 25.8199 70.9299 23.6875H49.606C54.7686 25.9321 59.7068 28.6257 59.7068 37.1552V109.769C59.7068 72.1712 17.3958 61.397 17.3958 23.6875H0C5.16262 25.9321 10.1008 28.7379 10.1008 37.1552V97.7598C10.1008 106.402 5.05039 109.095 0 111.228H21.3239C16.1612 108.983 11.2231 106.289 11.2231 97.7598V25.1465C11.2231 61.7337 53.5341 75.2014 53.5341 111.228H70.9299C65.7673 108.983 60.8291 106.177 60.8291 97.7598V37.1552Z" fill="white"/>
<path d="M128.694 88.7814C123.419 100.117 110.4 111.228 99.9626 111.228C87.7294 111.228 78.4143 103.035 83.128 82.3842L93.4532 37.3797C95.3611 28.8501 101.085 25.9321 106.809 23.6875H80.9956C85.7093 25.9321 89.974 28.4012 87.9539 36.9307L77.292 83.2821C73.4761 99.78 83.0157 112.35 99.6259 112.35C111.186 112.35 122.184 102.025 127.684 93.2706L123.531 111.228H139.243C134.979 110.666 129.928 107.748 130.714 104.494L146.202 37.3797C148.446 27.5033 153.16 25.1465 159.557 23.6875H143.845L128.694 88.7814Z" fill="white"/>
<path d="M199.965 111.228C211.974 111.228 227.35 100.678 225.891 87.5468C223.758 67.682 190.314 73.0691 190.314 65.2129C190.314 57.3567 220.616 59.4891 220.616 41.0833C220.616 28.8501 208.719 23.6875 193.568 23.6875H160.236C165.398 25.9321 170.337 28.6257 170.337 37.1552V97.7598C170.337 106.289 166.408 110.105 162.48 111.228H199.965ZM196.711 110.105C186.273 110.105 175.948 106.402 175.948 97.7598V24.8098H193.568C209.393 24.8098 215.004 29.5235 215.004 41.0833C215.004 58.0301 188.181 56.7956 188.069 65.2129C187.957 73.6302 217.474 68.8043 219.606 87.5468C221.402 103.035 210.515 110.105 196.711 110.105Z" fill="white"/>
<path d="M249.709 79.8029C249.709 67.4575 263.177 72.059 263.177 67.4575C263.177 63.0805 249.709 67.4575 249.709 55.1121V24.8098H270.809C282.817 24.8098 282.256 38.7264 277.767 52.0819L290 23.6875H233.997C239.272 25.9321 244.098 28.5134 244.098 37.1552V55.1121C244.098 67.4575 260.932 64.764 260.932 67.4575C260.932 70.2633 244.098 67.4575 244.098 79.8029V97.7598C244.098 106.289 239.272 108.983 233.997 111.228H286.072V99.3311C284.95 106.065 281.919 110.105 275.971 110.105H249.709V79.8029Z" fill="white"/>
</svg>
