<svg width="311" height="157" viewBox="0 0 311 157" fill="none" xmlns="http://www.w3.org/2000/svg">
<path fill-rule="evenodd" clip-rule="evenodd" d="M228.419 6.10352e-05H206.943H200.768H177.328V5.48294H200.768V49.7115H206.943V5.48294H228.419V6.10352e-05Z" fill="white"/>
<path fill-rule="evenodd" clip-rule="evenodd" d="M256.6 49.7115L277.678 6.10352e-05H283.91L268.472 36.4064H299.127L283.91 6.10352e-05H289.921L311 49.7115H304.689L301.443 42.1086H266.046L262.852 49.7115H256.6Z" fill="white"/>
<path fill-rule="evenodd" clip-rule="evenodd" d="M6.06382 99.4556H-0.000976562V49.7441H10.8817L48.1866 97.2259V49.7441H54.3616V99.4556H42.9139L6.06382 52.4856V99.4556Z" fill="white"/>
<path fill-rule="evenodd" clip-rule="evenodd" d="M142.937 49.8182H148.756V98.2397C148.082 97.5215 147.322 96.8708 146.474 96.2876C145.446 95.5615 144.267 94.9255 142.937 94.3797V49.8182ZM97.8236 156.284C100.562 156.762 103.3 157 106.039 157C111.926 157 117.437 155.875 122.572 153.626C127.706 151.309 132.225 148.174 136.127 144.221C140.098 140.268 143.178 135.803 145.369 130.828C147.628 125.853 148.758 120.673 148.758 115.288C148.758 109.768 146.875 105.713 143.11 103.123C139.345 100.464 133.354 99.1354 125.139 99.1354C119.525 99.1354 114.459 100.124 109.941 102.1C105.491 104.009 101.555 106.564 98.1317 109.768C94.7772 112.971 91.9703 116.447 89.7111 120.196C87.452 123.876 85.7405 127.557 84.5766 131.237C83.4813 134.849 82.9336 138.053 82.9336 140.847C82.9336 144.187 83.6182 146.913 84.9874 149.026C86.3566 151.139 88.1366 152.774 90.3273 153.933C92.5865 155.092 95.0852 155.875 97.8236 156.284ZM117.129 153.115C113.364 154.683 109.393 155.467 105.217 155.467C99.1244 155.467 94.7772 154.274 92.1757 151.888C89.6427 149.435 88.3762 146.061 88.3762 141.767C88.3762 138.564 89.0608 135.122 90.43 131.441C91.7992 127.761 93.6818 124.115 96.0779 120.502C98.5425 116.89 101.315 113.585 104.396 110.586C107.545 107.587 110.9 105.201 114.459 103.429C118.088 101.589 121.716 100.669 125.345 100.669C131.711 100.669 136.23 101.896 138.9 104.349C141.57 106.803 142.905 110.143 142.905 114.368C142.905 118.185 142.254 122.036 140.953 125.921C139.721 129.806 137.941 133.52 135.614 137.064C133.354 140.608 130.65 143.778 127.501 146.572C124.42 149.298 120.963 151.479 117.129 153.115Z" fill="white"/>
</svg>
