<svg width="240" height="206" viewBox="0 0 240 206" fill="none" xmlns="http://www.w3.org/2000/svg">
<path fill-rule="evenodd" clip-rule="evenodd" d="M169.103 59.5179C155.814 59.5179 145.164 70.0287 138.051 81.2541C128.681 96.0433 112.171 105.861 93.3671 105.861C64.1732 105.861 40.5068 82.1948 40.5068 53.0009C40.5068 23.807 64.1732 0.140625 93.3671 0.140625C112.171 0.140625 128.681 9.95853 138.051 24.7477C145.164 35.9731 155.814 46.4838 169.103 46.4838C181.072 46.4838 191.07 36.7426 201.426 30.7425C205.211 28.5499 209.606 27.2948 214.294 27.2948C228.491 27.2948 240 38.8038 240 53.0009C240 67.1979 228.491 78.7069 214.294 78.7069C209.606 78.7069 205.211 77.4518 201.426 75.2592C191.07 69.2591 181.072 59.5179 169.103 59.5179Z" fill="white"/>
<path d="M18.6978 160.007H16.3559L30.1841 138.41H35.1281V162.461H30.1841V144.99L31.3737 145.324L20.3334 162.461H14.7947L3.75443 145.398L4.94395 145.064V162.461H0V138.41H4.94395L18.6978 160.007Z" fill="white"/>
<path d="M54.0353 162.944C50.8384 162.944 48.1 162.448 45.8201 161.457C43.565 160.441 41.8303 159.004 40.616 157.145C39.4264 155.286 38.8317 153.056 38.8317 150.454C38.8317 147.827 39.4264 145.584 40.616 143.726C41.8303 141.867 43.565 140.442 45.8201 139.451C48.1 138.435 50.8384 137.927 54.0353 137.927C57.2569 137.927 59.9953 138.435 62.2504 139.451C64.5055 140.442 66.2279 141.867 67.4174 143.726C68.6317 145.584 69.2388 147.827 69.2388 150.454C69.2388 153.056 68.6317 155.286 67.4174 157.145C66.2279 159.004 64.5055 160.441 62.2504 161.457C59.9953 162.448 57.2569 162.944 54.0353 162.944ZM54.0353 158.669C56.0178 158.669 57.7525 158.372 59.2394 157.777C60.7511 157.182 61.9282 156.278 62.7708 155.063C63.6382 153.849 64.0719 152.313 64.0719 150.454C64.0719 148.595 63.6382 147.059 62.7708 145.845C61.9282 144.63 60.7511 143.726 59.2394 143.131C57.7525 142.511 56.0178 142.202 54.0353 142.202C52.0775 142.202 50.3304 142.511 48.7939 143.131C47.2575 143.726 46.0556 144.63 45.1882 145.845C44.3208 147.059 43.8872 148.595 43.8872 150.454C43.8872 152.313 44.3208 153.849 45.1882 155.063C46.0556 156.278 47.2575 157.182 48.7939 157.777C50.3304 158.372 52.0775 158.669 54.0353 158.669Z" fill="white"/>
<path d="M77.8937 138.41V158.335H93.8779V162.461H72.9497V138.41H77.8937Z" fill="white"/>
<path d="M102.298 152.424V158.335H120.847V162.461H97.3544V138.41H120.81V142.536H102.298V148.521H117.465V152.424H102.298Z" fill="white"/>
<path d="M152.656 153.799C152.433 155.732 151.751 157.38 150.611 158.743C149.471 160.106 147.923 161.147 145.965 161.866C144.007 162.585 141.678 162.944 138.976 162.944C136.721 162.944 134.652 162.684 132.769 162.163C130.91 161.643 129.299 160.862 127.936 159.821C126.598 158.781 125.557 157.492 124.814 155.955C124.07 154.394 123.698 152.573 123.698 150.491C123.698 148.409 124.07 146.588 124.814 145.027C125.557 143.465 126.598 142.164 127.936 141.124C129.299 140.058 130.91 139.265 132.769 138.745C134.652 138.199 136.721 137.927 138.976 137.927C141.678 137.927 144.007 138.298 145.965 139.042C147.947 139.785 149.509 140.851 150.649 142.239C151.788 143.602 152.458 145.262 152.656 147.22H147.749C147.427 146.179 146.882 145.287 146.113 144.543C145.37 143.775 144.404 143.193 143.214 142.796C142.024 142.4 140.612 142.202 138.976 142.202C136.944 142.202 135.16 142.524 133.623 143.168C132.087 143.788 130.898 144.717 130.055 145.956C129.212 147.17 128.791 148.682 128.791 150.491C128.791 152.275 129.212 153.775 130.055 154.989C130.898 156.203 132.087 157.133 133.623 157.777C135.16 158.396 136.944 158.706 138.976 158.706C140.612 158.706 142.012 158.508 143.177 158.111C144.366 157.715 145.333 157.145 146.076 156.402C146.845 155.658 147.402 154.791 147.749 153.799H152.656Z" fill="white"/>
<path d="M178.445 151.829V138.41H183.389V152.35C183.389 153.936 183.153 155.324 182.683 156.513C182.236 157.703 181.592 158.706 180.75 159.524C179.907 160.342 178.916 161.011 177.776 161.531C176.661 162.027 175.434 162.386 174.096 162.609C172.782 162.832 171.394 162.944 169.932 162.944C168.421 162.944 166.983 162.832 165.62 162.609C164.257 162.386 163.006 162.027 161.866 161.531C160.751 161.011 159.784 160.342 158.966 159.524C158.149 158.706 157.504 157.703 157.033 156.513C156.587 155.324 156.364 153.936 156.364 152.35V138.41H161.308V151.829C161.308 153.713 161.68 155.15 162.424 156.141C163.167 157.108 164.183 157.777 165.472 158.149C166.785 158.496 168.272 158.669 169.932 158.669C171.543 158.669 172.981 158.496 174.244 158.149C175.533 157.777 176.549 157.108 177.293 156.141C178.061 155.15 178.445 153.713 178.445 151.829Z" fill="white"/>
<path d="M192.937 138.41V158.335H208.921V162.461H187.993V138.41H192.937Z" fill="white"/>
<path d="M216.152 157.219V153.093H232.062V157.219H216.152ZM210.167 162.461L221.468 138.41H226.821L238.233 162.461H232.843L222.955 140.789H225.334L215.52 162.461H210.167Z" fill="white"/>
<path d="M0 205.828V181.778H13.8654C17.087 181.778 19.528 182.323 21.1884 183.413C22.8735 184.479 23.7161 186.077 23.7161 188.209C23.7161 189.572 23.3815 190.65 22.7124 191.443C22.0433 192.211 21.0892 192.781 19.8502 193.153C18.6359 193.524 17.1985 193.76 15.5381 193.859L15.6868 193.599C16.9011 193.623 18.0411 193.71 19.1067 193.859C20.1971 194.008 21.1512 194.28 21.969 194.677C22.7868 195.073 23.4311 195.631 23.902 196.349C24.3728 197.043 24.6082 197.96 24.6082 199.1C24.6082 200.587 24.2117 201.826 23.4187 202.818C22.6257 203.784 21.5229 204.515 20.1104 205.011C18.6978 205.506 17.0622 205.779 15.2036 205.828H0ZM4.94395 201.74H14.6832C16.2444 201.74 17.4463 201.492 18.2889 200.996C19.1315 200.476 19.5528 199.658 19.5528 198.543C19.5528 197.725 19.305 197.13 18.8093 196.758C18.3137 196.387 17.657 196.164 16.8392 196.089C16.0214 195.99 15.1416 195.941 14.1999 195.941H4.94395V201.74ZM4.94395 191.963H13.6795C15.2408 191.963 16.4427 191.74 17.2852 191.294C18.1278 190.823 18.5491 190.03 18.5491 188.915C18.5491 187.8 18.1278 187.019 17.2852 186.573C16.4427 186.102 15.3275 185.867 13.9397 185.867H4.94395V191.963Z" fill="white"/>
<path d="M31.4262 200.587V196.461H47.3361V200.587H31.4262ZM25.4414 205.828L36.7419 181.778H42.0947L53.5067 205.828H48.1167L38.2288 184.157H40.6078L30.7943 205.828H25.4414Z" fill="white"/>
<path d="M55.8881 205.828V181.778H72.2068C74.0655 181.778 75.6763 182.038 77.0393 182.558C78.4271 183.054 79.5051 183.847 80.2733 184.938C81.0415 186.003 81.4257 187.378 81.4257 189.064C81.4257 190.204 81.2274 191.17 80.8309 191.963C80.4344 192.756 79.8768 193.4 79.1581 193.896C78.4642 194.392 77.6588 194.776 76.7419 195.048C75.825 195.296 74.8461 195.457 73.8053 195.532L73.2849 195.234C75.0196 195.259 76.4445 195.408 77.5597 195.68C78.6749 195.928 79.5051 196.399 80.0503 197.093C80.6202 197.762 80.9052 198.766 80.9052 200.104V205.828H75.9613V200.438C75.9613 199.522 75.8002 198.815 75.478 198.32C75.1559 197.799 74.5735 197.44 73.7309 197.242C72.9131 197.043 71.7236 196.944 70.1624 196.944H60.832V205.828H55.8881ZM60.832 193.078H72.2068C73.5946 193.078 74.6478 192.744 75.3665 192.075C76.11 191.406 76.4817 190.501 76.4817 189.361C76.4817 188.271 76.11 187.44 75.3665 186.87C74.6478 186.3 73.5946 186.016 72.2068 186.016H60.832V193.078Z" fill="white"/>
</svg>
