<svg width="190" height="163" viewBox="0 0 190 163" fill="none" xmlns="http://www.w3.org/2000/svg">
<path d="M95.0003 31.9948C95.0003 49.665 80.6758 63.9896 63.0055 63.9896C45.3353 63.9896 31.0107 49.665 31.0107 31.9948C31.0107 14.3246 45.3353 0 63.0055 0C80.6758 0 95.0003 14.3246 95.0003 31.9948Z" fill="white"/>
<path d="M158.989 31.9948C158.989 49.665 144.664 63.9896 126.994 63.9896C109.324 63.9896 94.999 49.665 94.999 31.9948C94.999 14.3246 109.324 0 126.994 0C144.664 0 158.989 14.3246 158.989 31.9948Z" fill="white"/>
<path d="M190 109.62C190 135.854 168.733 157.121 142.499 157.121C116.266 157.121 94.999 135.854 94.999 109.62C94.999 83.3867 116.266 62.1201 142.499 62.1201C168.733 62.1201 190 83.3867 190 109.62Z" fill="white"/>
<path d="M95.0005 109.62C95.0005 135.854 73.7339 157.121 47.5003 157.121C21.2666 157.121 0 135.854 0 109.62C0 83.3867 21.2666 62.1201 47.5003 62.1201C73.7339 62.1201 95.0005 83.3867 95.0005 109.62Z" fill="white"/>
<path fill-rule="evenodd" clip-rule="evenodd" d="M53.5725 9.74197C53.9594 10.5151 53.6465 11.4555 52.8734 11.8425C48.8392 13.8619 45.4964 17.062 43.2996 20.9888C41.9107 23.4715 40.9801 26.2444 40.6214 29.1946C40.5171 30.0528 39.7368 30.664 38.8786 30.5596C38.0204 30.4553 37.4092 29.675 37.5135 28.8168C37.9224 25.4535 38.9839 22.2907 40.5673 19.4603C43.0695 14.9875 46.8752 11.3439 51.4719 9.04288C52.245 8.65589 53.1855 8.96888 53.5725 9.74197Z" fill="black"/>
<path fill-rule="evenodd" clip-rule="evenodd" d="M24.9445 79.5535C25.3315 80.3266 25.0185 81.267 24.2454 81.654C20.2112 83.6735 16.8685 86.8735 14.6717 90.8004C13.2828 93.283 12.3521 96.0559 11.9935 99.0061C11.8892 99.8643 11.1089 100.475 10.2507 100.371C9.39245 100.267 8.7813 99.4865 8.88562 98.6283C9.29445 95.265 10.356 92.1022 11.9394 89.2719C14.4416 84.7991 18.2473 81.1555 22.844 78.8544C23.6171 78.4674 24.5575 78.7804 24.9445 79.5535Z" fill="black"/>
<path fill-rule="evenodd" clip-rule="evenodd" d="M120.629 79.5535C121.016 80.3266 120.703 81.267 119.93 81.654C115.896 83.6735 112.553 86.8735 110.356 90.8004C108.967 93.283 108.037 96.0559 107.678 99.0061C107.574 99.8643 106.793 100.475 105.935 100.371C105.077 100.267 104.466 99.4865 104.57 98.6283C104.979 95.265 106.041 92.1022 107.624 89.2719C110.126 84.7991 113.932 81.1555 118.529 78.8544C119.302 78.4674 120.242 78.7804 120.629 79.5535Z" fill="black"/>
<path fill-rule="evenodd" clip-rule="evenodd" d="M117.836 9.74197C118.223 10.5151 117.91 11.4555 117.137 11.8425C113.103 13.8619 109.76 17.062 107.563 20.9888C106.174 23.4715 105.244 26.2444 104.885 29.1946C104.781 30.0528 104 30.664 103.142 30.5596C102.284 30.4553 101.673 29.675 101.777 28.8168C102.186 25.4535 103.248 22.2907 104.831 19.4603C107.333 14.9875 111.139 11.3439 115.736 9.04288C116.509 8.65589 117.449 8.96888 117.836 9.74197Z" fill="black"/>
<path d="M36.9395 162.746L41.7865 148.934H49.8603V162.746H36.9395Z" fill="white"/>
<path d="M46.741 157.149C46.741 157.149 42.5258 157.149 39.0722 156.508L37.8301 160.051C37.8301 160.051 41.3549 160.509 46.741 157.149Z" fill="#18171D"/>
<path d="M131.841 162.746L136.688 148.934H144.762V162.746H131.841Z" fill="white"/>
<path d="M142.089 157.149C142.089 157.149 137.663 157.149 134.037 156.508L132.732 160.051C132.732 160.051 136.433 160.509 142.089 157.149Z" fill="#18171D"/>
</svg>
