<svg width="311" height="159" viewBox="0 0 311 159" fill="none" xmlns="http://www.w3.org/2000/svg">
<path fill-rule="evenodd" clip-rule="evenodd" d="M36.2437 50.9138H21.5736L21.5736 37.9703L21.5736 36.2437C21.5736 28.1417 28.1417 21.5736 36.2437 21.5736C44.3458 21.5736 50.9138 28.1417 50.9138 36.2437C50.9138 44.3458 44.3458 50.9138 36.2437 50.9138ZM0 37.9703L0 36.2437C0 16.2269 16.2269 0 36.2437 0C56.2606 0 72.4874 16.2269 72.4874 36.2437C72.4874 56.2606 56.2606 72.4874 36.2437 72.4874H21.5736V81.949C12.6423 85.1777 5.08141 91.2704 0 99.1181L0 72.4874L0 37.9703ZM50.9139 76.8334C59.8452 73.6048 67.4061 67.5122 72.4875 59.6647V86.2951V120.812V122.539C72.4875 142.556 56.2607 158.783 36.2438 158.783C16.227 158.783 8.7543e-05 142.556 8.7543e-05 122.539C8.7543e-05 102.522 16.227 86.2951 36.2438 86.2951H50.9139V76.8334ZM50.9139 107.869H36.2438C28.1418 107.869 21.5737 114.437 21.5737 122.539C21.5737 130.641 28.1418 137.209 36.2438 137.209C44.3459 137.209 50.9139 130.641 50.9139 122.539V120.812V107.869Z" fill="white"/>
<path d="M101.268 69.4527H108.348C110.214 69.4527 111.147 70.1388 111.147 71.511C111.147 72.8832 110.214 73.5693 108.348 73.5693H101.268V69.4527ZM101.268 82.6258H107.978C112.506 82.6258 115.964 81.6378 118.351 79.6618C120.684 77.7682 121.851 75.0513 121.851 71.511C121.851 67.9707 120.684 65.2538 118.351 63.3602C115.964 61.3842 112.506 60.3962 107.978 60.3962H90.5645V89.2123H101.268V82.6258Z" fill="white"/>
<path d="M124.735 60.3962V89.2123H155.198V80.9791H135.438V78.5092H154.786V71.0993H135.438V68.6294H155.198V60.3962H124.735Z" fill="white"/>
<path d="M156.657 60.3962V69.4527H167.36V89.2123H178.063V69.4527H188.766V60.3962H156.657Z" fill="white"/>
<path d="M201.931 69.4527H210.658C212.524 69.4527 213.457 70.1388 213.457 71.511C213.457 72.8832 212.524 73.5693 210.658 73.5693H201.931V69.4527ZM201.931 82.6258H208.641L213.046 89.2123H224.161L218.644 80.9791C222.322 79.1404 224.161 75.9844 224.161 71.511C224.161 67.9707 222.994 65.2538 220.661 63.3602C218.274 61.3842 214.816 60.3962 210.288 60.3962H191.228V89.2123H201.931V82.6258Z" fill="white"/>
<path d="M244.341 80.5675C239.127 80.5675 236.52 78.6464 236.52 74.8043C236.52 70.9621 239.127 69.041 244.341 69.041C249.556 69.041 252.163 70.9621 252.163 74.8043C252.163 78.6464 249.556 80.5675 244.341 80.5675ZM244.341 59.9846C238.276 59.9846 233.652 61.2881 230.469 63.8953C227.367 66.4476 225.817 70.0839 225.817 74.8043C225.817 79.5246 227.367 83.1609 230.469 85.7132C233.652 88.3204 238.276 89.624 244.341 89.624C250.407 89.624 255.031 88.3204 258.214 85.7132C261.315 83.1609 262.866 79.5246 262.866 74.8043C262.866 70.0839 261.315 66.4476 258.214 63.8953C255.031 61.2881 250.407 59.9846 244.341 59.9846Z" fill="white"/>
<path d="M265.962 60.3962V89.2123H293.131V80.1558H276.665V60.3962H265.962Z" fill="white"/>
<path d="M101.268 111.795H108.348C110.214 111.795 111.147 112.481 111.147 113.853C111.147 115.225 110.214 115.911 108.348 115.911H101.268V111.795ZM101.268 124.968H107.978C112.506 124.968 115.964 123.98 118.351 122.004C120.684 120.11 121.851 117.393 121.851 113.853C121.851 110.313 120.684 107.596 118.351 105.702C115.964 103.726 112.506 102.738 107.978 102.738H90.5645V131.554H101.268V124.968Z" fill="white"/>
<path d="M142.231 122.91C137.016 122.91 134.409 120.988 134.409 117.146C134.409 113.304 137.016 111.383 142.231 111.383C147.445 111.383 150.052 113.304 150.052 117.146C150.052 120.988 147.445 122.91 142.231 122.91ZM142.231 102.327C136.166 102.327 131.541 103.63 128.358 106.237C125.257 108.79 123.706 112.426 123.706 117.146C123.706 121.867 125.257 125.503 128.358 128.055C131.541 130.662 136.166 131.966 142.231 131.966C148.296 131.966 152.92 130.662 156.104 128.055C159.205 125.503 160.755 121.867 160.755 117.146C160.755 112.426 159.205 108.79 156.104 106.237C152.92 103.63 148.296 102.327 142.231 102.327Z" fill="white"/>
<path d="M174.554 122.498V111.795H180.852C185.436 111.795 187.727 113.579 187.727 117.146C187.727 120.714 185.436 122.498 180.852 122.498H174.554ZM163.851 102.738V131.554H180.852C186.698 131.554 191.116 130.278 194.108 127.726C196.989 125.283 198.43 121.757 198.43 117.146C198.43 112.536 196.989 109.009 194.108 106.567C191.116 104.014 186.698 102.738 180.852 102.738H163.851Z" fill="white"/>
<path d="M201.519 131.554H212.222V102.738H201.519V131.554Z" fill="white"/>
<path d="M216.353 102.738V131.554H243.523V122.498H227.057V102.738H216.353Z" fill="white"/>
<path d="M265.323 102.738L257.296 113.441L249.268 102.738H237.33L251.944 122.21V131.554H262.647V122.21L277.261 102.738H265.323Z" fill="white"/>
<path d="M283.007 102.738L270.657 131.554H281.772L283.871 126.614H297.785L299.885 131.554H311L298.65 102.738H283.007ZM290.828 110.436L294.574 119.205H287.082L290.828 110.436Z" fill="white"/>
</svg>
