<svg width="300" height="161" viewBox="0 0 300 161" fill="none" xmlns="http://www.w3.org/2000/svg">
<path d="M97.627 0H104.624L93.5112 19.7559H90.5479L97.627 0Z" fill="white"/>
<path d="M5.10357 80.0935C1.64631 76.3893 0 71.2033 0 64.3711C0 61.6547 0.246931 59.0205 0.65851 56.4688C2.30483 47.3317 5.67977 40.4172 10.7833 35.6429C15.8869 30.8686 22.4722 28.4814 30.6214 28.4814C37.3713 28.4814 42.0634 30.1277 44.8621 33.4203C47.5785 36.7129 49.0602 41.7343 49.0602 48.4018L40.0878 49.3896C40.0055 44.6153 39.1 41.0757 37.3714 38.6885C35.6427 36.3014 32.7617 35.2313 28.8105 35.2313C26.8349 35.2313 24.9417 35.5605 23.0484 36.1368C21.0728 36.713 19.3442 37.6184 17.7802 38.6885C13.8291 42.8866 11.1949 48.8134 9.79557 56.4688C9.30167 59.1852 9.05472 61.5723 9.05472 63.5479C9.05472 68.2399 10.0425 71.9442 12.1004 74.6606C14.1583 77.377 17.204 78.7764 21.2375 78.7764C22.9661 78.7764 24.6947 78.5295 26.4234 78.0356C28.152 77.5417 29.716 76.8832 31.0331 75.9777C32.6794 74.3314 33.9964 72.7673 35.0665 71.2034C36.0543 69.6394 37.0421 67.5814 37.9476 64.9473L46.5084 65.6058C44.2036 72.0264 40.9109 77.0477 36.6305 80.5049C32.3501 83.9622 26.6703 85.6909 19.5088 85.6909C13.4175 85.6086 8.56083 83.7977 5.10357 80.0935Z" fill="white"/>
<path d="M59.1025 80.3401C55.5629 76.8006 53.752 71.7793 53.752 65.1117C53.752 62.9715 53.9989 60.4197 54.4105 57.4564C56.0568 48.237 59.4318 40.9931 64.5353 35.8896C69.6389 30.786 76.0595 28.1519 83.7972 28.1519C90.4648 28.1519 95.6507 29.9629 99.2726 33.6671C102.894 37.3713 104.705 42.5572 104.705 49.2248C104.705 51.9412 104.458 54.493 104.047 57.0448C102.483 66.0995 99.108 73.1786 93.9221 78.1176C88.7362 83.1388 82.2332 85.6083 74.4132 85.6083C67.7456 85.6083 62.7244 83.8797 59.1025 80.3401ZM87.2545 74.9073C91.041 70.2153 93.5105 64.2886 94.9099 57.0448C95.3215 54.7399 95.4861 52.5174 95.4861 50.2125C95.4861 45.2736 94.3336 41.487 92.0288 38.8529C89.7239 36.2188 86.4314 34.9018 81.9863 34.9018C79.5991 34.9018 77.2942 35.3957 75.2363 36.4658C73.0961 37.4536 71.2852 38.9352 69.7212 40.9108C66.6755 45.7675 64.6176 51.2003 63.5475 57.2917C63.1359 59.5142 62.889 61.7368 62.889 63.877C62.889 68.7336 64.0414 72.4378 66.3463 75.0719C68.6511 77.6237 71.9438 78.9408 76.3888 78.9408C80.5869 78.8585 84.2088 77.5414 87.2545 74.9073Z" fill="white"/>
<path d="M167.926 56.6328C166.856 62.4772 165.785 67.4161 164.715 71.3673C163.645 75.3184 162.246 78.6934 160.435 81.3275C158.706 83.9616 156.566 85.361 154.014 85.361C151.874 85.361 150.392 84.5378 149.322 82.8092C148.335 81.0805 147.841 78.5288 147.841 74.9892C147.841 71.8612 148.252 67.7455 149.075 62.4773C149.734 58.5261 150.31 55.1512 150.639 52.4347C150.969 49.7183 151.133 47.2489 151.133 45.1086C151.133 41.8983 150.639 39.4288 149.734 37.7001C148.828 35.9715 147.182 35.1484 144.877 35.1484C140.679 35.1484 136.481 37.5356 132.283 42.1453C128.085 46.8373 124.628 52.1877 121.993 58.2791C120.512 66.346 119.112 75.0716 117.795 84.4556H108.329C109.317 80.0928 110.305 75.3185 111.292 70.0503C112.28 64.7821 112.856 61.4071 113.103 60.0078L113.597 56.962L114.667 50.6238C116.149 42.7215 117.301 35.6423 118.207 29.3863H125.862L121.911 54.1633H122.734C124.463 49.6359 126.768 45.3555 129.649 41.4043C132.53 37.4532 135.658 34.243 139.198 31.8558C142.655 29.4686 146.112 28.2339 149.569 28.2339C153.52 28.2339 156.319 29.3863 157.965 31.6911C159.612 33.996 160.435 37.4532 160.435 42.0629C160.435 46.4256 159.694 52.3524 158.295 59.7608C157.307 65.6876 156.813 70.2149 156.813 73.2606C156.813 76.5533 157.389 78.1995 158.542 78.1995C159.859 78.1995 161.011 76.224 162.164 72.3551C163.316 68.4863 164.551 63.1357 165.868 56.4681H167.926V56.6328Z" fill="white"/>
<path d="M185.046 82.2334C182.741 80.1755 181.259 77.3768 180.683 73.9195C180.107 70.4622 179.778 65.7702 179.778 59.7612V36.2189L171.217 36.3834V29.3866C173.439 29.3866 176.238 29.469 179.613 29.5513V16.7923C182.741 16.7923 185.869 16.71 188.997 16.5454C188.997 22.3075 188.997 26.5879 188.915 29.5513C191.137 29.5513 195.088 29.469 200.686 29.3866L207.518 29.3043C207.436 30.1274 207.353 31.3622 207.353 32.9262C207.353 33.4201 207.353 33.9963 207.271 34.6549C207.189 35.3134 207.189 35.8896 207.189 36.5481L188.915 36.3011C188.832 41.8986 188.832 51.5295 188.832 65.3586C188.832 69.3921 189.326 72.6025 190.396 74.825C191.384 77.1298 193.442 78.2822 196.405 78.2822C200.027 78.2822 203.485 77.706 206.695 76.5535C206.695 78.0352 206.695 79.1877 206.613 80.0932L206.53 83.8796C202.744 84.9497 199.122 85.4437 195.747 85.4437C190.89 85.3613 187.351 84.2912 185.046 82.2334Z" fill="white"/>
<path d="M146.893 108.086C149.445 111.543 151.256 117.141 152.244 124.961L143.107 126.195C141.461 115.165 137.262 109.65 130.513 109.65C127.549 109.65 125.08 110.72 122.939 112.86C120.799 115 118.906 118.046 117.342 121.997V126.031V133.768C117.342 144.881 117.424 153.277 117.671 158.875H107.958C108.287 153.113 108.37 143.893 108.37 131.381C108.37 118.869 108.287 109.65 108.123 103.805H117.671L116.19 120.104H116.848C118.33 114.753 120.799 110.555 124.174 107.427C127.549 104.299 131.418 102.735 135.534 102.735C140.555 102.9 144.342 104.629 146.893 108.086Z" fill="white"/>
<path d="M163.52 158.381C161.05 157.146 159.157 155.5 157.84 153.36C156.523 151.22 155.782 148.833 155.782 146.198C155.782 140.601 158.252 136.403 163.191 133.686C168.13 130.97 174.221 129.571 181.629 129.571L189.202 129.735L193.73 129.9V128.748C193.647 124.796 193.236 121.504 192.577 118.87C191.837 116.236 190.437 114.095 188.379 112.531C186.321 110.967 183.358 110.144 179.489 110.144C176.197 110.473 173.48 111.544 171.258 113.272C168.294 115.659 166.319 119.363 165.331 124.302L156.358 122.656C157.758 116.071 160.474 111.132 164.425 107.839C168.377 104.547 173.974 102.9 181.218 102.9C188.791 102.9 194.224 105.041 197.681 109.403C201.056 113.766 202.785 120.269 202.867 128.994C202.867 132.122 202.949 136.65 203.031 142.577V145.128C203.114 148.75 203.114 153.36 203.114 158.875H193.647L195.129 142.906H194.224C193.401 145.869 192.001 148.586 189.943 151.22C187.885 153.854 185.416 155.994 182.288 157.64C179.242 159.287 175.785 160.11 172.081 160.11C168.788 160.192 165.989 159.616 163.52 158.381ZM183.77 150.726C186.239 149.244 188.379 147.433 190.19 145.375C192.001 143.317 193.154 141.424 193.812 139.778V133.357C190.931 133.193 187.721 133.11 184.099 133.11C179.489 133.11 175.126 133.851 170.928 135.415C166.813 136.979 164.755 139.86 164.755 144.058C164.755 147.186 165.742 149.409 167.636 150.808C169.529 152.207 172.328 152.948 175.95 152.948C178.666 153.031 181.3 152.208 183.77 150.726Z" fill="white"/>
<path d="M219.414 155.417C215.463 152.371 212.911 148.09 211.677 142.493L220.238 141.588C222.789 149.325 228.14 153.194 236.371 153.194C240.57 153.194 244.191 152.289 247.237 150.395C248.143 149.49 248.883 148.255 249.377 146.856C249.871 145.456 250.118 143.975 250.118 142.411C250.118 140.435 249.624 138.871 248.637 137.636C247.649 136.402 246.085 135.414 243.862 134.755C241.64 134.097 238.676 133.438 234.807 133.027C229.21 132.368 224.93 131.463 221.884 130.146C218.838 128.911 216.698 127.265 215.463 125.289C214.229 123.313 213.652 120.844 213.652 117.716C213.652 114.753 214.558 112.118 216.451 109.814C218.262 107.509 220.896 105.78 224.189 104.463C227.564 103.146 231.35 102.57 235.631 102.57C242.792 102.57 248.307 104.134 252.341 107.262C256.292 110.39 258.844 115.329 259.996 121.996L251.6 123.149C250.53 118.539 248.719 115.082 246.167 112.859C243.615 110.637 239.911 109.484 235.054 109.484C233.326 109.484 231.597 109.731 229.951 110.143C228.304 110.555 226.905 111.131 225.835 111.789C223.612 113.765 222.46 116.234 222.46 119.445C222.46 121.42 222.872 123.067 223.613 124.384C224.436 125.701 225.917 126.771 228.058 127.594C230.198 128.417 233.408 129.24 237.524 129.816C242.71 130.31 246.826 131.051 249.871 132.204C252.917 133.356 255.057 134.838 256.292 136.649C257.527 138.459 258.185 140.929 258.185 143.892C258.185 148.914 256.127 152.865 252.011 155.828C247.896 158.709 242.298 160.191 235.301 160.191C228.634 160.026 223.366 158.462 219.414 155.417Z" fill="white"/>
<path d="M277.528 156.652C275.223 154.594 273.742 151.795 273.165 148.338C272.589 144.881 272.26 140.189 272.26 134.18V110.637L263.699 110.802V103.805C265.922 103.805 268.72 103.887 272.095 103.97V91.2108C275.223 91.2108 278.351 91.1285 281.479 90.9639C281.479 96.726 281.479 101.006 281.397 103.97C283.62 103.97 287.571 103.887 293.168 103.805L300 103.723C299.918 104.546 299.836 105.781 299.836 107.345C299.836 107.839 299.836 108.415 299.754 109.073C299.671 109.732 299.671 110.308 299.671 110.967L281.397 110.72C281.315 116.317 281.315 125.948 281.315 139.777C281.315 143.811 281.809 147.021 282.879 149.243C283.867 151.548 285.924 152.701 288.888 152.701C292.51 152.701 295.967 152.124 299.177 150.972C299.177 152.454 299.177 153.606 299.095 154.512L299.013 158.298C295.226 159.368 291.604 159.862 288.229 159.862C283.455 159.78 279.833 158.71 277.528 156.652Z" fill="white"/>
</svg>
